<?xml version="1.0" encoding="UTF-8" standalone="no"?>
<!-- Generator: Adobe Illustrator 15.1.0, SVG Export Plug-In . SVG Version: 6.00 Build 0)  -->
<svg xmlns:dc="http://purl.org/dc/elements/1.1/" xmlns:cc="http://creativecommons.org/ns#" xmlns:rdf="http://www.w3.org/1999/02/22-rdf-syntax-ns#" xmlns:svg="http://www.w3.org/2000/svg" xmlns="http://www.w3.org/2000/svg" xmlns:sodipodi="http://sodipodi.sourceforge.net/DTD/sodipodi-0.dtd" xmlns:inkscape="http://www.inkscape.org/namespaces/inkscape" version="1.1" id="Layer_1" x="0px" y="0px" width="233.213" height="321.871" viewBox="0 0 233.21299 321.87099" enable-background="new 0 0 841.89 595.28" xml:space="preserve" inkscape:version="0.91 r13725" sodipodi:docname="fenics_logo_text.svg"><metadata id="metadata4339"><rdf:RDF><cc:Work rdf:about=""><dc:format>image/svg+xml</dc:format><dc:type rdf:resource="http://purl.org/dc/dcmitype/StillImage"/><dc:title/></cc:Work></rdf:RDF></metadata><defs id="defs4337"/><sodipodi:namedview pagecolor="#ffffff" bordercolor="#666666" borderopacity="1" objecttolerance="10" gridtolerance="10" guidetolerance="10" inkscape:pageopacity="0" inkscape:pageshadow="2" inkscape:window-width="1763" inkscape:window-height="974" id="namedview4335" showgrid="false" fit-margin-top="1" fit-margin-left="1" fit-margin-right="1" fit-margin-bottom="1" inkscape:zoom="0.51446376" inkscape:cx="289.86301" inkscape:cy="130.85798" inkscape:window-x="515" inkscape:window-y="210" inkscape:window-maximized="0" inkscape:current-layer="Layer_1"/><g id="g3337" transform="translate(-131.082,-106.627)"><g id="g3339"><polygon points="231.121,157.353 215.535,175.165 245.595,158.835 " id="polygon3341" style="fill:#758291"/><polygon points="262.678,164.773 269.731,144.363 245.595,158.835 " id="polygon3343" style="fill:#758291"/><polygon points="196.841,253.846 184.16,237.158 163.786,238.829 " id="polygon3345" style="fill:#758291"/><polygon points="149.559,262.568 140.427,281.211 172.796,266.527 " id="polygon3347" style="fill:#758291"/><polygon points="172.796,266.527 162.02,293.078 182.823,281.46 " id="polygon3349" style="fill:#758291"/><polygon points="162.02,316.312 162.02,293.078 132.082,313.58 " id="polygon3351" style="fill:#758291"/><polygon points="202.175,207.076 206.259,221.179 222.604,209.673 " id="polygon3353" style="fill:#758291"/><polygon points="213.844,306.906 207.505,286.882 182.807,304.695 " id="polygon3355" style="fill:#758291"/><polygon points="232.694,322.467 231.759,301.359 213.844,306.906 " id="polygon3357" style="fill:#758291"/><polygon points="240.398,222.292 238.915,247.896 262.308,227.487 " id="polygon3359" style="fill:#758291"/><polygon points="234.091,276.098 238.915,247.896 224.404,258.227 " id="polygon3361" style="fill:#758291"/><polygon points="258.221,281.46 258.597,258.286 234.091,276.098 " id="polygon3363" style="fill:#758291"/><polygon points="275.651,196.685 286.8,223.379 294.59,216.353 " id="polygon3365" style="fill:#758291"/><polygon points="261.923,201.883 262.293,227.487 286.8,223.381 " id="polygon3367" style="fill:#758291"/><polygon points="286.8,223.379 289.383,242.333 310.549,233.053 " id="polygon3369" style="fill:#758291"/><polygon points="283.87,344.243 280.188,320.425 269.344,338.813 " id="polygon3371" style="fill:#758291"/></g><g id="g3373"><polygon points="222.604,209.673 224.417,188.531 202.175,207.076 " id="polygon3375" style="fill:#605e5c"/><polygon points="269.731,144.363 265.213,125.416 250.789,138.8 " id="polygon3377" style="fill:#605e5c"/><polygon points="245.595,158.835 243.476,172.162 262.678,164.773 " id="polygon3379" style="fill:#605e5c"/><polygon points="261.937,201.883 263.05,181.474 245.965,186.296 " id="polygon3381" style="fill:#605e5c"/><polygon points="173.13,223.477 163.786,238.829 184.16,237.158 " id="polygon3383" style="fill:#605e5c"/><polygon points="162.02,293.078 162.02,316.312 182.823,304.695 " id="polygon3385" style="fill:#605e5c"/><polygon points="240.398,222.292 245.965,186.296 222.587,209.673 " id="polygon3387" style="fill:#605e5c"/><polygon points="262.308,227.487 261.937,201.883 240.398,222.292 " id="polygon3389" style="fill:#605e5c"/><polygon points="238.915,247.896 240.398,222.292 214.794,239.732 " id="polygon3391" style="fill:#605e5c"/><polygon points="234.091,276.098 244.852,295.022 258.221,281.46 " id="polygon3393" style="fill:#605e5c"/><polygon points="262.293,227.487 258.583,258.286 289.383,242.333 " id="polygon3395" style="fill:#605e5c"/><polygon points="309.437,271.649 314.63,253.462 284.559,265.708 " id="polygon3397" style="fill:#605e5c"/><polygon points="336.287,288.201 337.253,264.966 309.421,271.649 " id="polygon3399" style="fill:#605e5c"/></g><g id="g3401"><polygon points="162.02,293.078 172.796,266.527 140.427,281.211 " id="polygon3403" style="fill:#650000"/><polygon points="189.814,367.646 195.156,383.664 224.523,370.646 " id="polygon3405" style="fill:#650000"/><polygon points="232.679,322.467 231.866,339.614 246.529,325.139 " id="polygon3407" style="fill:#650000"/><polygon points="257.114,413.771 259.018,395.468 234.462,404.498 " id="polygon3409" style="fill:#650000"/><polygon points="238.915,421.191 234.462,404.498 215.535,427.498 " id="polygon3411" style="fill:#650000"/><polygon points="312.086,301.221 309.437,271.649 286.8,293.078 " id="polygon3413" style="fill:#650000"/><polygon points="307.744,369.722 306.338,346.388 280.477,363.674 " id="polygon3415" style="fill:#650000"/><polygon points="336.287,308.335 328.672,340.47 351.242,328.153 " id="polygon3417" style="fill:#650000"/></g><g id="g3419"><polygon points="160.449,345.951 162.02,316.312 135.087,331.938 " id="polygon3421" style="fill:#ff339a"/><polygon points="188.482,349.623 189.814,367.646 214.177,354.965 " id="polygon3423" style="fill:#ff339a"/><polygon points="284.559,265.708 286.8,293.078 309.437,271.649 " id="polygon3425" style="fill:#ff339a"/><polygon points="306.338,346.388 306.468,322.484 283.87,344.243 " id="polygon3427" style="fill:#ff339a"/><polygon points="310.536,233.053 314.615,253.462 325.005,249.752 " id="polygon3429" style="fill:#ff339a"/><polygon points="357.679,299.849 349.198,281.46 336.287,288.201 " id="polygon3431" style="fill:#ff339a"/><polygon points="356.328,350.475 351.242,328.153 328.672,340.47 " id="polygon3433" style="fill:#ff339a"/></g><g id="g3435"><polygon points="162.02,362.775 160.449,345.951 145.431,348.621 " id="polygon3437" style="fill:#ff7e00"/><polygon points="182.807,304.695 184.81,325.595 213.844,306.906 " id="polygon3439" style="fill:#ff7e00"/><polygon points="213.844,306.906 215.512,335.942 232.694,322.467 " id="polygon3441" style="fill:#ff7e00"/><polygon points="244.852,295.022 258.954,318.033 269.392,307.742 " id="polygon3443" style="fill:#ff7e00"/><polygon points="248.565,386.678 234.462,404.498 259.018,395.468 " id="polygon3445" style="fill:#ff7e00"/><polygon points="258.583,258.286 258.202,281.46 284.559,265.708 " id="polygon3447" style="fill:#ff7e00"/><polygon points="286.8,293.078 280.188,320.425 312.086,301.221 " id="polygon3449" style="fill:#ff7e00"/><polygon points="280.477,363.674 283.87,344.243 270.086,353.282 " id="polygon3451" style="fill:#ff7e00"/><polygon points="301.644,392.62 307.744,369.722 286.8,386.01 " id="polygon3453" style="fill:#ff7e00"/><polygon points="336.287,308.335 336.287,288.201 312.072,301.221 " id="polygon3455" style="fill:#ff7e00"/><polygon points="306.453,322.484 306.322,346.388 328.672,340.47 " id="polygon3457" style="fill:#ff7e00"/><polygon points="328.672,340.47 333.342,357.836 356.328,350.475 " id="polygon3459" style="fill:#ff7e00"/></g><g id="g3461"><polygon points="182.823,304.695 182.823,281.46 162.02,293.078 " id="polygon3463" style="fill:#ed0000"/><polygon points="132.082,313.58 135.087,331.938 162.02,316.312 " id="polygon3465" style="fill:#ed0000"/><polygon points="184.828,325.595 182.823,304.695 162.02,316.312 " id="polygon3467" style="fill:#ed0000"/><polygon points="135.087,331.938 145.431,348.621 160.449,345.951 " id="polygon3469" style="fill:#ed0000"/><polygon points="188.498,349.623 184.828,325.595 160.449,345.951 " id="polygon3471" style="fill:#ed0000"/><polygon points="189.832,367.646 188.498,349.623 162.02,362.775 " id="polygon3473" style="fill:#ed0000"/><polygon points="195.171,383.664 189.832,367.646 178.137,374.318 " id="polygon3475" style="fill:#ed0000"/><polygon points="231.759,301.359 219.533,284.213 207.505,286.882 " id="polygon3477" style="fill:#ed0000"/><polygon points="215.512,335.942 213.844,306.906 184.81,325.595 " id="polygon3479" style="fill:#ed0000"/><polygon points="231.882,339.614 232.694,322.467 215.512,335.942 " id="polygon3481" style="fill:#ed0000"/><polygon points="214.177,354.965 215.512,335.942 188.482,349.623 " id="polygon3483" style="fill:#ed0000"/><polygon points="240.225,351.29 231.882,339.614 214.177,354.965 " id="polygon3485" style="fill:#ed0000"/><polygon points="224.523,370.646 214.177,354.965 189.814,367.646 " id="polygon3487" style="fill:#ed0000"/><polygon points="207.505,389.334 224.523,370.646 195.156,383.664 " id="polygon3489" style="fill:#ed0000"/><polygon points="232.679,322.467 232.694,322.467 231.759,301.359 246.529,325.139 " id="polygon3491" style="fill:#ed0000"/><polygon points="248.22,338.275 246.529,325.139 231.866,339.614 " id="polygon3493" style="fill:#ed0000"/><polygon points="234.462,404.498 238.915,421.191 257.114,413.771 " id="polygon3495" style="fill:#ed0000"/><polygon points="258.202,281.46 269.375,307.742 286.8,293.078 " id="polygon3497" style="fill:#ed0000"/><polygon points="269.375,307.742 269.344,338.813 280.188,320.425 " id="polygon3499" style="fill:#ed0000"/><polygon points="306.468,322.484 312.086,301.221 280.188,320.425 " id="polygon3501" style="fill:#ed0000"/><polygon points="283.87,344.243 280.477,363.674 306.338,346.388 " id="polygon3503" style="fill:#ed0000"/><polygon points="270.086,353.282 261.18,370.725 280.477,363.674 " id="polygon3505" style="fill:#ed0000"/><polygon points="280.477,363.674 286.8,386.01 307.744,369.722 " id="polygon3507" style="fill:#ed0000"/><polygon points="261.18,370.725 258.999,395.468 286.8,386.01 " id="polygon3509" style="fill:#ed0000"/><polygon points="258.999,395.468 257.099,413.771 280.105,404.12 " id="polygon3511" style="fill:#ed0000"/><polygon points="351.242,328.153 357.679,299.849 336.287,308.335 " id="polygon3513" style="fill:#ed0000"/><polygon points="328.672,340.47 336.287,308.335 306.453,322.484 " id="polygon3515" style="fill:#ed0000"/><polygon points="333.342,357.836 328.672,340.47 306.322,346.388 " id="polygon3517" style="fill:#ed0000"/><polygon points="343.947,363.674 356.328,350.475 333.342,357.836 " id="polygon3519" style="fill:#ed0000"/><polygon points="307.729,369.722 301.629,392.62 327.606,375.923 " id="polygon3521" style="fill:#ed0000"/></g><g id="g3523"><polygon points="224.417,188.531 215.55,175.165 202.175,192.975 " id="polygon3525" style="fill:#aeb0b2"/><polygon points="245.595,158.835 250.789,138.8 231.121,157.353 " id="polygon3527" style="fill:#aeb0b2"/><polygon points="243.476,172.162 245.595,158.835 215.535,175.165 " id="polygon3529" style="fill:#aeb0b2"/><polygon points="263.05,181.474 262.678,164.773 243.476,172.162 " id="polygon3531" style="fill:#aeb0b2"/><polygon points="263.034,181.474 261.923,201.881 275.651,196.685 " id="polygon3533" style="fill:#aeb0b2"/><polygon points="163.786,238.829 172.796,266.527 196.841,253.846 " id="polygon3535" style="fill:#aeb0b2"/><polygon points="140.427,281.211 132.082,313.58 162.02,293.078 " id="polygon3537" style="fill:#aeb0b2"/><polygon points="162.02,316.312 160.449,345.951 184.828,325.595 " id="polygon3539" style="fill:#aeb0b2"/><polygon points="214.809,239.732 222.604,209.673 206.259,221.179 " id="polygon3541" style="fill:#aeb0b2"/><polygon points="182.807,281.46 182.807,304.695 207.505,286.882 " id="polygon3543" style="fill:#aeb0b2"/><polygon points="258.597,258.286 262.308,227.487 238.915,247.896 " id="polygon3545" style="fill:#aeb0b2"/><polygon points="269.392,307.742 258.221,281.46 244.852,295.022 " id="polygon3547" style="fill:#aeb0b2"/><polygon points="314.63,253.462 310.549,233.053 289.383,242.333 " id="polygon3549" style="fill:#aeb0b2"/><polygon points="337.253,264.966 325.005,249.752 314.615,253.462 " id="polygon3551" style="fill:#aeb0b2"/><polygon points="357.663,299.849 351.227,328.153 363.229,317.289 " id="polygon3553" style="fill:#aeb0b2"/></g><g id="g3555"><polygon points="162.02,362.775 178.137,374.318 189.832,367.646 " id="polygon3557" style="fill:#bd0000"/><polygon points="207.505,286.882 213.844,306.906 231.759,301.359 " id="polygon3559" style="fill:#bd0000"/><polygon points="184.81,325.595 188.482,349.623 215.512,335.942 " id="polygon3561" style="fill:#bd0000"/><polygon points="215.512,335.942 214.177,354.965 231.882,339.614 " id="polygon3563" style="fill:#bd0000"/><polygon points="269.359,338.813 269.392,307.742 258.954,318.033 " id="polygon3565" style="fill:#bd0000"/><polygon points="289.383,242.333 284.559,265.708 314.63,253.462 " id="polygon3567" style="fill:#bd0000"/><polygon points="280.188,320.425 283.87,344.243 306.468,322.484 " id="polygon3569" style="fill:#bd0000"/><polygon points="280.105,404.12 286.8,386.01 258.999,395.468 " id="polygon3571" style="fill:#bd0000"/><polygon points="306.322,346.388 307.729,369.722 333.342,357.836 " id="polygon3573" style="fill:#bd0000"/><polygon points="363.295,334.731 363.229,317.289 351.227,328.153 " id="polygon3575" style="fill:#bd0000"/></g><g id="g3577"><polygon points="160.449,345.951 162.02,362.775 188.498,349.623 " id="polygon3579" style="fill:#ffcf00"/><polygon points="207.505,286.882 207.505,268.196 182.807,281.46 " id="polygon3581" style="fill:#ffcf00"/><polygon points="214.177,354.965 224.523,370.646 240.225,351.29 " id="polygon3583" style="fill:#ffcf00"/><polygon points="259.018,395.468 261.196,370.725 248.565,386.678 " id="polygon3585" style="fill:#ffcf00"/><polygon points="312.072,301.221 306.453,322.484 336.287,308.335 " id="polygon3587" style="fill:#ffcf00"/><polygon points="327.606,375.923 333.342,357.836 307.729,369.722 " id="polygon3589" style="fill:#ffcf00"/><polygon points="351.227,328.153 356.315,350.475 363.295,334.731 " id="polygon3591" style="fill:#ffcf00"/></g><g id="g3593"><polygon points="202.175,192.975 202.175,207.076 224.417,188.531 " id="polygon3595" style="fill:#464749"/><polygon points="250.789,138.8 245.595,158.835 269.731,144.363 " id="polygon3597" style="fill:#464749"/><polygon points="215.535,175.165 224.404,188.531 243.476,172.162 " id="polygon3599" style="fill:#464749"/><polygon points="172.796,266.527 163.786,238.829 149.559,262.568 " id="polygon3601" style="fill:#464749"/><polygon points="182.823,281.46 196.841,253.846 172.796,266.527 " id="polygon3603" style="fill:#464749"/><polygon points="207.505,268.196 207.505,286.882 219.533,284.213 " id="polygon3605" style="fill:#464749"/><polygon points="245.965,186.296 240.398,222.292 261.937,201.883 " id="polygon3607" style="fill:#464749"/><polygon points="222.587,209.673 214.794,239.732 240.398,222.292 " id="polygon3609" style="fill:#464749"/><polygon points="214.794,239.732 224.404,258.227 238.915,247.896 " id="polygon3611" style="fill:#464749"/><polygon points="238.915,247.896 234.091,276.098 258.597,258.286 " id="polygon3613" style="fill:#464749"/><polygon points="231.866,339.614 240.211,351.29 248.22,338.275 " id="polygon3615" style="fill:#464749"/><polygon points="310.549,233.053 294.59,216.353 286.8,223.381 " id="polygon3617" style="fill:#464749"/><polygon points="289.383,242.333 286.8,223.379 262.293,227.487 " id="polygon3619" style="fill:#464749"/><polygon points="286.8,293.078 284.559,265.708 258.202,281.46 " id="polygon3621" style="fill:#464749"/><polygon points="286.8,386.01 280.477,363.674 261.18,370.725 " id="polygon3623" style="fill:#464749"/><polygon points="314.615,253.462 309.421,271.649 337.253,264.966 " id="polygon3625" style="fill:#464749"/><polygon points="309.421,271.649 312.072,301.221 336.287,288.201 " id="polygon3627" style="fill:#464749"/><polygon points="336.287,288.201 336.287,308.335 357.679,299.849 " id="polygon3629" style="fill:#464749"/><polygon points="333.342,357.836 327.606,375.923 343.947,363.674 " id="polygon3631" style="fill:#464749"/><polygon points="265.198,125.416 269.714,144.363 277.136,128.78 " id="polygon3633" style="fill:#464749"/></g><g id="g3635"><polygon points="243.476,172.162 245.965,186.296 263.05,181.474 " id="polygon3637"/><polygon points="277.136,128.78 286.041,107.627 265.198,125.416 " id="polygon3639"/><polygon points="196.828,253.846 182.807,281.46 207.505,268.196 " id="polygon3641"/><polygon points="286.8,223.381 275.651,196.685 261.923,201.883 " id="polygon3643"/><polygon points="284.559,265.708 289.383,242.333 258.583,258.286 " id="polygon3645"/><polygon points="280.188,320.425 286.8,293.078 269.375,307.742 " id="polygon3647"/><polygon points="269.344,338.813 270.086,353.282 283.87,344.243 " id="polygon3649"/><polygon points="286.8,386.01 280.105,404.12 301.644,392.62 " id="polygon3651"/><polygon points="337.253,264.966 336.287,288.201 349.198,281.46 " id="polygon3653"/><polygon points="224.404,188.531 222.587,209.673 245.965,186.296 " id="polygon3655"/></g><g id="g3657"><polygon points="224.404,188.531 245.965,186.296 243.476,172.162 " id="polygon3659" style="fill:#ffff00"/></g><g id="g3661"><polygon points="231.121,157.353 215.535,175.165 245.595,158.835 " id="polygon3663" style="fill:#758291"/><polygon points="262.678,164.773 269.731,144.363 245.595,158.835 " id="polygon3665" style="fill:#758291"/><polygon points="196.841,253.846 184.16,237.158 163.786,238.829 " id="polygon3667" style="fill:#758291"/><polygon points="149.559,262.568 140.427,281.211 172.796,266.527 " id="polygon3669" style="fill:#758291"/><polygon points="172.796,266.527 162.02,293.078 182.823,281.46 " id="polygon3671" style="fill:#758291"/><polygon points="162.02,316.312 162.02,293.078 132.082,313.58 " id="polygon3673" style="fill:#758291"/><polygon points="202.175,207.076 206.259,221.179 222.604,209.673 " id="polygon3675" style="fill:#758291"/><polygon points="213.844,306.906 207.505,286.882 182.807,304.695 " id="polygon3677" style="fill:#758291"/><polygon points="232.694,322.467 231.759,301.359 213.844,306.906 " id="polygon3679" style="fill:#758291"/><polygon points="240.398,222.292 238.915,247.896 262.308,227.487 " id="polygon3681" style="fill:#758291"/><polygon points="234.091,276.098 238.915,247.896 224.404,258.227 " id="polygon3683" style="fill:#758291"/><polygon points="258.221,281.46 258.597,258.286 234.091,276.098 " id="polygon3685" style="fill:#758291"/><polygon points="275.651,196.685 286.8,223.379 294.59,216.353 " id="polygon3687" style="fill:#758291"/><polygon points="261.923,201.883 262.293,227.487 286.8,223.381 " id="polygon3689" style="fill:#758291"/><polygon points="286.8,223.379 289.383,242.333 310.549,233.053 " id="polygon3691" style="fill:#758291"/><polygon points="283.87,344.243 280.188,320.425 269.344,338.813 " id="polygon3693" style="fill:#758291"/></g><g id="g3695"><polygon points="222.604,209.673 224.417,188.531 202.175,207.076 " id="polygon3697" style="fill:#605e5c"/><polygon points="269.731,144.363 265.213,125.416 250.789,138.8 " id="polygon3699" style="fill:#605e5c"/><polygon points="245.595,158.835 243.476,172.162 262.678,164.773 " id="polygon3701" style="fill:#605e5c"/><polygon points="261.937,201.883 263.05,181.474 245.965,186.296 " id="polygon3703" style="fill:#605e5c"/><polygon points="173.13,223.477 163.786,238.829 184.16,237.158 " id="polygon3705" style="fill:#605e5c"/><polygon points="162.02,293.078 162.02,316.312 182.823,304.695 " id="polygon3707" style="fill:#605e5c"/><polygon points="240.398,222.292 245.965,186.296 222.587,209.673 " id="polygon3709" style="fill:#605e5c"/><polygon points="262.308,227.487 261.937,201.883 240.398,222.292 " id="polygon3711" style="fill:#605e5c"/><polygon points="238.915,247.896 240.398,222.292 214.794,239.732 " id="polygon3713" style="fill:#605e5c"/><polygon points="234.091,276.098 244.852,295.022 258.221,281.46 " id="polygon3715" style="fill:#605e5c"/><polygon points="262.293,227.487 258.583,258.286 289.383,242.333 " id="polygon3717" style="fill:#605e5c"/><polygon points="309.437,271.649 314.63,253.462 284.559,265.708 " id="polygon3719" style="fill:#605e5c"/><polygon points="336.287,288.201 337.253,264.966 309.421,271.649 " id="polygon3721" style="fill:#605e5c"/></g><g id="g3723"><polygon points="162.02,293.078 172.796,266.527 140.427,281.211 " id="polygon3725" style="fill:#650000"/><polygon points="189.814,367.646 195.156,383.664 224.523,370.646 " id="polygon3727" style="fill:#650000"/><polygon points="232.679,322.467 231.866,339.614 246.529,325.139 " id="polygon3729" style="fill:#650000"/><polygon points="257.114,413.771 259.018,395.468 234.462,404.498 " id="polygon3731" style="fill:#650000"/><polygon points="238.915,421.191 234.462,404.498 215.535,427.498 " id="polygon3733" style="fill:#650000"/><polygon points="312.086,301.221 309.437,271.649 286.8,293.078 " id="polygon3735" style="fill:#650000"/><polygon points="307.744,369.722 306.338,346.388 280.477,363.674 " id="polygon3737" style="fill:#650000"/><polygon points="336.287,308.335 328.672,340.47 351.242,328.153 " id="polygon3739" style="fill:#650000"/></g><g id="g3741"><polygon points="160.449,345.951 162.02,316.312 135.087,331.938 " id="polygon3743" style="fill:#ff339a"/><polygon points="188.482,349.623 189.814,367.646 214.177,354.965 " id="polygon3745" style="fill:#ff339a"/><polygon points="284.559,265.708 286.8,293.078 309.437,271.649 " id="polygon3747" style="fill:#ff339a"/><polygon points="306.338,346.388 306.468,322.484 283.87,344.243 " id="polygon3749" style="fill:#ff339a"/><polygon points="310.536,233.053 314.615,253.462 325.005,249.752 " id="polygon3751" style="fill:#ff339a"/><polygon points="357.679,299.849 349.198,281.46 336.287,288.201 " id="polygon3753" style="fill:#ff339a"/><polygon points="356.328,350.475 351.242,328.153 328.672,340.47 " id="polygon3755" style="fill:#ff339a"/></g><g id="g3757"><polygon points="162.02,362.775 160.449,345.951 145.431,348.621 " id="polygon3759" style="fill:#ff7e00"/><polygon points="182.807,304.695 184.81,325.595 213.844,306.906 " id="polygon3761" style="fill:#ff7e00"/><polygon points="213.844,306.906 215.512,335.942 232.694,322.467 " id="polygon3763" style="fill:#ff7e00"/><polygon points="244.852,295.022 258.954,318.033 269.392,307.742 " id="polygon3765" style="fill:#ff7e00"/><polygon points="248.565,386.678 234.462,404.498 259.018,395.468 " id="polygon3767" style="fill:#ff7e00"/><polygon points="258.583,258.286 258.202,281.46 284.559,265.708 " id="polygon3769" style="fill:#ff7e00"/><polygon points="286.8,293.078 280.188,320.425 312.086,301.221 " id="polygon3771" style="fill:#ff7e00"/><polygon points="280.477,363.674 283.87,344.243 270.086,353.282 " id="polygon3773" style="fill:#ff7e00"/><polygon points="301.644,392.62 307.744,369.722 286.8,386.01 " id="polygon3775" style="fill:#ff7e00"/><polygon points="336.287,308.335 336.287,288.201 312.072,301.221 " id="polygon3777" style="fill:#ff7e00"/><polygon points="306.453,322.484 306.322,346.388 328.672,340.47 " id="polygon3779" style="fill:#ff7e00"/><polygon points="328.672,340.47 333.342,357.836 356.328,350.475 " id="polygon3781" style="fill:#ff7e00"/></g><g id="g3783"><polygon points="182.823,304.695 182.823,281.46 162.02,293.078 " id="polygon3785" style="fill:#ed0000"/><polygon points="132.082,313.58 135.087,331.938 162.02,316.312 " id="polygon3787" style="fill:#ed0000"/><polygon points="184.828,325.595 182.823,304.695 162.02,316.312 " id="polygon3789" style="fill:#ed0000"/><polygon points="135.087,331.938 145.431,348.621 160.449,345.951 " id="polygon3791" style="fill:#ed0000"/><polygon points="188.498,349.623 184.828,325.595 160.449,345.951 " id="polygon3793" style="fill:#ed0000"/><polygon points="189.832,367.646 188.498,349.623 162.02,362.775 " id="polygon3795" style="fill:#ed0000"/><polygon points="195.171,383.664 189.832,367.646 178.137,374.318 " id="polygon3797" style="fill:#ed0000"/><polygon points="231.759,301.359 219.533,284.213 207.505,286.882 " id="polygon3799" style="fill:#ed0000"/><polygon points="215.512,335.942 213.844,306.906 184.81,325.595 " id="polygon3801" style="fill:#ed0000"/><polygon points="231.882,339.614 232.694,322.467 215.512,335.942 " id="polygon3803" style="fill:#ed0000"/><polygon points="214.177,354.965 215.512,335.942 188.482,349.623 " id="polygon3805" style="fill:#ed0000"/><polygon points="240.225,351.29 231.882,339.614 214.177,354.965 " id="polygon3807" style="fill:#ed0000"/><polygon points="224.523,370.646 214.177,354.965 189.814,367.646 " id="polygon3809" style="fill:#ed0000"/><polygon points="207.505,389.334 224.523,370.646 195.156,383.664 " id="polygon3811" style="fill:#ed0000"/><polygon points="232.679,322.467 232.694,322.467 231.759,301.359 246.529,325.139 " id="polygon3813" style="fill:#ed0000"/><polygon points="248.22,338.275 246.529,325.139 231.866,339.614 " id="polygon3815" style="fill:#ed0000"/><polygon points="234.462,404.498 238.915,421.191 257.114,413.771 " id="polygon3817" style="fill:#ed0000"/><polygon points="258.202,281.46 269.375,307.742 286.8,293.078 " id="polygon3819" style="fill:#ed0000"/><polygon points="269.375,307.742 269.344,338.813 280.188,320.425 " id="polygon3821" style="fill:#ed0000"/><polygon points="306.468,322.484 312.086,301.221 280.188,320.425 " id="polygon3823" style="fill:#ed0000"/><polygon points="283.87,344.243 280.477,363.674 306.338,346.388 " id="polygon3825" style="fill:#ed0000"/><polygon points="270.086,353.282 261.18,370.725 280.477,363.674 " id="polygon3827" style="fill:#ed0000"/><polygon points="280.477,363.674 286.8,386.01 307.744,369.722 " id="polygon3829" style="fill:#ed0000"/><polygon points="261.18,370.725 258.999,395.468 286.8,386.01 " id="polygon3831" style="fill:#ed0000"/><polygon points="258.999,395.468 257.099,413.771 280.105,404.12 " id="polygon3833" style="fill:#ed0000"/><polygon points="351.242,328.153 357.679,299.849 336.287,308.335 " id="polygon3835" style="fill:#ed0000"/><polygon points="328.672,340.47 336.287,308.335 306.453,322.484 " id="polygon3837" style="fill:#ed0000"/><polygon points="333.342,357.836 328.672,340.47 306.322,346.388 " id="polygon3839" style="fill:#ed0000"/><polygon points="343.947,363.674 356.328,350.475 333.342,357.836 " id="polygon3841" style="fill:#ed0000"/><polygon points="307.729,369.722 301.629,392.62 327.606,375.923 " id="polygon3843" style="fill:#ed0000"/></g><g id="g3845"><polygon points="224.417,188.531 215.55,175.165 202.175,192.975 " id="polygon3847" style="fill:#aeb0b2"/><polygon points="245.595,158.835 250.789,138.8 231.121,157.353 " id="polygon3849" style="fill:#aeb0b2"/><polygon points="243.476,172.162 245.595,158.835 215.535,175.165 " id="polygon3851" style="fill:#aeb0b2"/><polygon points="263.05,181.474 262.678,164.773 243.476,172.162 " id="polygon3853" style="fill:#aeb0b2"/><polygon points="263.034,181.474 261.923,201.881 275.651,196.685 " id="polygon3855" style="fill:#aeb0b2"/><polygon points="163.786,238.829 172.796,266.527 196.841,253.846 " id="polygon3857" style="fill:#aeb0b2"/><polygon points="140.427,281.211 132.082,313.58 162.02,293.078 " id="polygon3859" style="fill:#aeb0b2"/><polygon points="162.02,316.312 160.449,345.951 184.828,325.595 " id="polygon3861" style="fill:#aeb0b2"/><polygon points="214.809,239.732 222.604,209.673 206.259,221.179 " id="polygon3863" style="fill:#aeb0b2"/><polygon points="182.807,281.46 182.807,304.695 207.505,286.882 " id="polygon3865" style="fill:#aeb0b2"/><polygon points="258.597,258.286 262.308,227.487 238.915,247.896 " id="polygon3867" style="fill:#aeb0b2"/><polygon points="269.392,307.742 258.221,281.46 244.852,295.022 " id="polygon3869" style="fill:#aeb0b2"/><polygon points="314.63,253.462 310.549,233.053 289.383,242.333 " id="polygon3871" style="fill:#aeb0b2"/><polygon points="337.253,264.966 325.005,249.752 314.615,253.462 " id="polygon3873" style="fill:#aeb0b2"/><polygon points="357.663,299.849 351.227,328.153 363.229,317.289 " id="polygon3875" style="fill:#aeb0b2"/></g><g id="g3877"><polygon points="162.02,362.775 178.137,374.318 189.832,367.646 " id="polygon3879" style="fill:#bd0000"/><polygon points="207.505,286.882 213.844,306.906 231.759,301.359 " id="polygon3881" style="fill:#bd0000"/><polygon points="184.81,325.595 188.482,349.623 215.512,335.942 " id="polygon3883" style="fill:#bd0000"/><polygon points="215.512,335.942 214.177,354.965 231.882,339.614 " id="polygon3885" style="fill:#bd0000"/><polygon points="269.359,338.813 269.392,307.742 258.954,318.033 " id="polygon3887" style="fill:#bd0000"/><polygon points="289.383,242.333 284.559,265.708 314.63,253.462 " id="polygon3889" style="fill:#bd0000"/><polygon points="280.188,320.425 283.87,344.243 306.468,322.484 " id="polygon3891" style="fill:#bd0000"/><polygon points="280.105,404.12 286.8,386.01 258.999,395.468 " id="polygon3893" style="fill:#bd0000"/><polygon points="306.322,346.388 307.729,369.722 333.342,357.836 " id="polygon3895" style="fill:#bd0000"/><polygon points="363.295,334.731 363.229,317.289 351.227,328.153 " id="polygon3897" style="fill:#bd0000"/></g><g id="g3899"><polygon points="160.449,345.951 162.02,362.775 188.498,349.623 " id="polygon3901" style="fill:#ffcf00"/><polygon points="207.505,286.882 207.505,268.196 182.807,281.46 " id="polygon3903" style="fill:#ffcf00"/><polygon points="214.177,354.965 224.523,370.646 240.225,351.29 " id="polygon3905" style="fill:#ffcf00"/><polygon points="259.018,395.468 261.196,370.725 248.565,386.678 " id="polygon3907" style="fill:#ffcf00"/><polygon points="312.072,301.221 306.453,322.484 336.287,308.335 " id="polygon3909" style="fill:#ffcf00"/><polygon points="327.606,375.923 333.342,357.836 307.729,369.722 " id="polygon3911" style="fill:#ffcf00"/><polygon points="351.227,328.153 356.315,350.475 363.295,334.731 " id="polygon3913" style="fill:#ffcf00"/></g><g id="g3915"><polygon points="202.175,192.975 202.175,207.076 224.417,188.531 " id="polygon3917" style="fill:#464749"/><polygon points="250.789,138.8 245.595,158.835 269.731,144.363 " id="polygon3919" style="fill:#464749"/><polygon points="215.535,175.165 224.404,188.531 243.476,172.162 " id="polygon3921" style="fill:#464749"/><polygon points="172.796,266.527 163.786,238.829 149.559,262.568 " id="polygon3923" style="fill:#464749"/><polygon points="182.823,281.46 196.841,253.846 172.796,266.527 " id="polygon3925" style="fill:#464749"/><polygon points="207.505,268.196 207.505,286.882 219.533,284.213 " id="polygon3927" style="fill:#464749"/><polygon points="245.965,186.296 240.398,222.292 261.937,201.883 " id="polygon3929" style="fill:#464749"/><polygon points="222.587,209.673 214.794,239.732 240.398,222.292 " id="polygon3931" style="fill:#464749"/><polygon points="214.794,239.732 224.404,258.227 238.915,247.896 " id="polygon3933" style="fill:#464749"/><polygon points="238.915,247.896 234.091,276.098 258.597,258.286 " id="polygon3935" style="fill:#464749"/><polygon points="231.866,339.614 240.211,351.29 248.22,338.275 " id="polygon3937" style="fill:#464749"/><polygon points="310.549,233.053 294.59,216.353 286.8,223.381 " id="polygon3939" style="fill:#464749"/><polygon points="289.383,242.333 286.8,223.379 262.293,227.487 " id="polygon3941" style="fill:#464749"/><polygon points="286.8,293.078 284.559,265.708 258.202,281.46 " id="polygon3943" style="fill:#464749"/><polygon points="286.8,386.01 280.477,363.674 261.18,370.725 " id="polygon3945" style="fill:#464749"/><polygon points="314.615,253.462 309.421,271.649 337.253,264.966 " id="polygon3947" style="fill:#464749"/><polygon points="309.421,271.649 312.072,301.221 336.287,288.201 " id="polygon3949" style="fill:#464749"/><polygon points="336.287,288.201 336.287,308.335 357.679,299.849 " id="polygon3951" style="fill:#464749"/><polygon points="333.342,357.836 327.606,375.923 343.947,363.674 " id="polygon3953" style="fill:#464749"/><polygon points="265.198,125.416 269.714,144.363 277.136,128.78 " id="polygon3955" style="fill:#464749"/></g><g id="g3957"><polygon points="243.476,172.162 245.965,186.296 263.05,181.474 " id="polygon3959"/><polygon points="277.136,128.78 286.041,107.627 265.198,125.416 " id="polygon3961"/><polygon points="196.828,253.846 182.807,281.46 207.505,268.196 " id="polygon3963"/><polygon points="286.8,223.381 275.651,196.685 261.923,201.883 " id="polygon3965"/><polygon points="284.559,265.708 289.383,242.333 258.583,258.286 " id="polygon3967"/><polygon points="280.188,320.425 286.8,293.078 269.375,307.742 " id="polygon3969"/><polygon points="269.344,338.813 270.086,353.282 283.87,344.243 " id="polygon3971"/><polygon points="286.8,386.01 280.105,404.12 301.644,392.62 " id="polygon3973"/><polygon points="337.253,264.966 336.287,288.201 349.198,281.46 " id="polygon3975"/><polygon points="224.404,188.531 222.587,209.673 245.965,186.296 " id="polygon3977"/></g><g id="g3979"><polygon points="224.404,188.531 245.965,186.296 243.476,172.162 " id="polygon3981" style="fill:#ffff00"/></g><g id="g3983"><polygon points="231.121,157.353 215.535,175.165 245.595,158.835 " id="polygon3985" style="fill:#758291"/><polygon points="262.678,164.773 269.731,144.363 245.595,158.835 " id="polygon3987" style="fill:#758291"/><polygon points="196.841,253.846 184.16,237.158 163.786,238.829 " id="polygon3989" style="fill:#758291"/><polygon points="149.559,262.568 140.427,281.211 172.796,266.527 " id="polygon3991" style="fill:#758291"/><polygon points="172.796,266.527 162.02,293.078 182.823,281.46 " id="polygon3993" style="fill:#758291"/><polygon points="162.02,316.312 162.02,293.078 132.082,313.58 " id="polygon3995" style="fill:#758291"/><polygon points="202.175,207.076 206.259,221.179 222.604,209.673 " id="polygon3997" style="fill:#758291"/><polygon points="213.844,306.906 207.505,286.882 182.807,304.695 " id="polygon3999" style="fill:#758291"/><polygon points="232.694,322.467 231.759,301.359 213.844,306.906 " id="polygon4001" style="fill:#758291"/><polygon points="240.398,222.292 238.915,247.896 262.308,227.487 " id="polygon4003" style="fill:#758291"/><polygon points="234.091,276.098 238.915,247.896 224.404,258.227 " id="polygon4005" style="fill:#758291"/><polygon points="258.221,281.46 258.597,258.286 234.091,276.098 " id="polygon4007" style="fill:#758291"/><polygon points="275.651,196.685 286.8,223.379 294.59,216.353 " id="polygon4009" style="fill:#758291"/><polygon points="261.923,201.883 262.293,227.487 286.8,223.381 " id="polygon4011" style="fill:#758291"/><polygon points="286.8,223.379 289.383,242.333 310.549,233.053 " id="polygon4013" style="fill:#758291"/><polygon points="283.87,344.243 280.188,320.425 269.344,338.813 " id="polygon4015" style="fill:#758291"/></g><g id="g4017"><polygon points="222.604,209.673 224.417,188.531 202.175,207.076 " id="polygon4019" style="fill:#605e5c"/><polygon points="269.731,144.363 265.213,125.416 250.789,138.8 " id="polygon4021" style="fill:#605e5c"/><polygon points="245.595,158.835 243.476,172.162 262.678,164.773 " id="polygon4023" style="fill:#605e5c"/><polygon points="261.937,201.883 263.05,181.474 245.965,186.296 " id="polygon4025" style="fill:#605e5c"/><polygon points="173.13,223.477 163.786,238.829 184.16,237.158 " id="polygon4027" style="fill:#605e5c"/><polygon points="162.02,293.078 162.02,316.312 182.823,304.695 " id="polygon4029" style="fill:#605e5c"/><polygon points="240.398,222.292 245.965,186.296 222.587,209.673 " id="polygon4031" style="fill:#605e5c"/><polygon points="262.308,227.487 261.937,201.883 240.398,222.292 " id="polygon4033" style="fill:#605e5c"/><polygon points="238.915,247.896 240.398,222.292 214.794,239.732 " id="polygon4035" style="fill:#605e5c"/><polygon points="234.091,276.098 244.852,295.022 258.221,281.46 " id="polygon4037" style="fill:#605e5c"/><polygon points="262.293,227.487 258.583,258.286 289.383,242.333 " id="polygon4039" style="fill:#605e5c"/><polygon points="309.437,271.649 314.63,253.462 284.559,265.708 " id="polygon4041" style="fill:#605e5c"/><polygon points="336.287,288.201 337.253,264.966 309.421,271.649 " id="polygon4043" style="fill:#605e5c"/></g><g id="g4045"><polygon points="162.02,293.078 172.796,266.527 140.427,281.211 " id="polygon4047" style="fill:#650000"/><polygon points="189.814,367.646 195.156,383.664 224.523,370.646 " id="polygon4049" style="fill:#650000"/><polygon points="232.679,322.467 231.866,339.614 246.529,325.139 " id="polygon4051" style="fill:#bd0000"/><polygon points="257.114,413.771 259.018,395.468 234.462,404.498 " id="polygon4053" style="fill:#650000"/><polygon points="238.915,421.191 234.462,404.498 215.535,427.498 " id="polygon4055" style="fill:#650000"/><polygon points="312.086,301.221 309.437,271.649 286.8,293.078 " id="polygon4057" style="fill:#650000"/><polygon points="307.744,369.722 306.338,346.388 280.477,363.674 " id="polygon4059" style="fill:#650000"/><polygon points="336.287,308.335 328.672,340.47 351.242,328.153 " id="polygon4061" style="fill:#650000"/></g><g id="g4063"><polygon points="160.449,345.951 162.02,316.312 135.087,331.938 " id="polygon4065" style="fill:#ff339a"/><polygon points="188.482,349.623 189.814,367.646 214.177,354.965 " id="polygon4067" style="fill:#ff339a"/><polygon points="284.559,265.708 286.8,293.078 309.437,271.649 " id="polygon4069" style="fill:#ff339a"/><polygon points="306.338,346.388 306.468,322.484 283.87,344.243 " id="polygon4071" style="fill:#ff339a"/><polygon points="310.536,233.053 314.615,253.462 325.005,249.752 " id="polygon4073" style="fill:#ff339a"/><polygon points="357.679,299.849 349.198,281.46 336.287,288.201 " id="polygon4075" style="fill:#ff339a"/><polygon points="356.328,350.475 351.242,328.153 328.672,340.47 " id="polygon4077" style="fill:#ff339a"/></g><g id="g4079"><polygon points="162.02,362.775 160.449,345.951 145.431,348.621 " id="polygon4081" style="fill:#ff7e00"/><polygon points="182.807,304.695 184.81,325.595 213.844,306.906 " id="polygon4083" style="fill:#ff7e00"/><polygon points="213.844,306.906 215.512,335.942 232.694,322.467 " id="polygon4085" style="fill:#ffcf00"/><polygon points="244.852,295.022 258.954,318.033 269.392,307.742 " id="polygon4087" style="fill:#ff7e00"/><polygon points="248.565,386.678 234.462,404.498 259.018,395.468 " id="polygon4089" style="fill:#ff7e00"/><polygon points="258.583,258.286 258.202,281.46 284.559,265.708 " id="polygon4091" style="fill:#ff7e00"/><polygon points="286.8,293.078 280.188,320.425 312.086,301.221 " id="polygon4093" style="fill:#ff7e00"/><polygon points="280.477,363.674 283.87,344.243 270.086,353.282 " id="polygon4095" style="fill:#ff7e00"/><polygon points="301.644,392.62 307.744,369.722 286.8,386.01 " id="polygon4097" style="fill:#ff7e00"/><polygon points="336.287,308.335 336.287,288.201 312.072,301.221 " id="polygon4099" style="fill:#ff7e00"/><polygon points="306.453,322.484 306.322,346.388 328.672,340.47 " id="polygon4101" style="fill:#ff7e00"/><polygon points="328.672,340.47 333.342,357.836 356.328,350.475 " id="polygon4103" style="fill:#ff7e00"/></g><g id="g4105"><polygon points="182.823,304.695 182.823,281.46 162.02,293.078 " id="polygon4107" style="fill:#ed0000"/><polygon points="132.082,313.58 135.087,331.938 162.02,316.312 " id="polygon4109" style="fill:#ed0000"/><polygon points="184.828,325.595 182.823,304.695 162.02,316.312 " id="polygon4111" style="fill:#ed0000"/><polygon points="135.087,331.938 145.431,348.621 160.449,345.951 " id="polygon4113" style="fill:#ed0000"/><polygon points="188.498,349.623 184.828,325.595 160.449,345.951 " id="polygon4115" style="fill:#ed0000"/><polygon points="189.832,367.646 188.498,349.623 162.02,362.775 " id="polygon4117" style="fill:#ed0000"/><polygon points="195.171,383.664 189.832,367.646 178.137,374.318 " id="polygon4119" style="fill:#ed0000"/><polygon points="231.759,301.359 219.533,284.213 207.505,286.882 " id="polygon4121" style="fill:#ed0000"/><polygon points="215.512,335.942 213.844,306.906 184.81,325.595 " id="polygon4123" style="fill:#ed0000"/><polygon points="231.882,339.614 232.694,322.467 215.512,335.942 " id="polygon4125" style="fill:#ed0000"/><polygon points="214.177,354.965 215.512,335.942 188.482,349.623 " id="polygon4127" style="fill:#ed0000"/><polygon points="240.225,351.29 231.882,339.614 214.177,354.965 " id="polygon4129" style="fill:#ed0000"/><polygon points="224.523,370.646 214.177,354.965 189.814,367.646 " id="polygon4131" style="fill:#ed0000"/><polygon points="207.505,389.334 224.523,370.646 195.156,383.664 " id="polygon4133" style="fill:#ed0000"/><polygon points="232.679,322.467 232.694,322.467 231.759,301.359 246.529,325.139 " id="polygon4135" style="fill:#ff7e00"/><polygon points="248.22,338.275 246.529,325.139 231.866,339.614 " id="polygon4137" style="fill:#ed0000"/><polygon points="234.462,404.498 238.915,421.191 257.114,413.771 " id="polygon4139" style="fill:#ed0000"/><polygon points="258.202,281.46 269.375,307.742 286.8,293.078 " id="polygon4141" style="fill:#ed0000"/><polygon points="269.375,307.742 269.344,338.813 280.188,320.425 " id="polygon4143" style="fill:#ed0000"/><polygon points="306.468,322.484 312.086,301.221 280.188,320.425 " id="polygon4145" style="fill:#ed0000"/><polygon points="283.87,344.243 280.477,363.674 306.338,346.388 " id="polygon4147" style="fill:#ed0000"/><polygon points="270.086,353.282 261.18,370.725 280.477,363.674 " id="polygon4149" style="fill:#ed0000"/><polygon points="280.477,363.674 286.8,386.01 307.744,369.722 " id="polygon4151" style="fill:#ed0000"/><polygon points="261.18,370.725 258.999,395.468 286.8,386.01 " id="polygon4153" style="fill:#ed0000"/><polygon points="258.999,395.468 257.099,413.771 280.105,404.12 " id="polygon4155" style="fill:#ed0000"/><polygon points="351.242,328.153 357.679,299.849 336.287,308.335 " id="polygon4157" style="fill:#ed0000"/><polygon points="328.672,340.47 336.287,308.335 306.453,322.484 " id="polygon4159" style="fill:#ed0000"/><polygon points="333.342,357.836 328.672,340.47 306.322,346.388 " id="polygon4161" style="fill:#ed0000"/><polygon points="343.947,363.674 356.328,350.475 333.342,357.836 " id="polygon4163" style="fill:#ed0000"/><polygon points="307.729,369.722 301.629,392.62 327.606,375.923 " id="polygon4165" style="fill:#ed0000"/></g><g id="g4167"><polygon points="224.417,188.531 215.55,175.165 202.175,192.975 " id="polygon4169" style="fill:#aeb0b2"/><polygon points="245.595,158.835 250.789,138.8 231.121,157.353 " id="polygon4171" style="fill:#aeb0b2"/><polygon points="243.476,172.162 245.595,158.835 215.535,175.165 " id="polygon4173" style="fill:#aeb0b2"/><polygon points="263.05,181.474 262.678,164.773 243.476,172.162 " id="polygon4175" style="fill:#aeb0b2"/><polygon points="263.034,181.474 261.923,201.881 275.651,196.685 " id="polygon4177" style="fill:#aeb0b2"/><polygon points="163.786,238.829 172.796,266.527 196.841,253.846 " id="polygon4179" style="fill:#aeb0b2"/><polygon points="140.427,281.211 132.082,313.58 162.02,293.078 " id="polygon4181" style="fill:#aeb0b2"/><polygon points="162.02,316.312 160.449,345.951 184.828,325.595 " id="polygon4183" style="fill:#aeb0b2"/><polygon points="214.809,239.732 222.604,209.673 206.259,221.179 " id="polygon4185" style="fill:#aeb0b2"/><polygon points="182.807,281.46 182.807,304.695 207.505,286.882 " id="polygon4187" style="fill:#aeb0b2"/><polygon points="258.597,258.286 262.308,227.487 238.915,247.896 " id="polygon4189" style="fill:#aeb0b2"/><polygon points="269.392,307.742 258.221,281.46 244.852,295.022 " id="polygon4191" style="fill:#aeb0b2"/><polygon points="314.63,253.462 310.549,233.053 289.383,242.333 " id="polygon4193" style="fill:#aeb0b2"/><polygon points="337.253,264.966 325.005,249.752 314.615,253.462 " id="polygon4195" style="fill:#aeb0b2"/><polygon points="357.663,299.849 351.227,328.153 363.229,317.289 " id="polygon4197" style="fill:#aeb0b2"/></g><g id="g4199"><polygon points="162.02,362.775 178.137,374.318 189.832,367.646 " id="polygon4201" style="fill:#bd0000"/><polygon points="207.505,286.882 213.844,306.906 231.759,301.359 " id="polygon4203" style="fill:#bd0000"/><polygon points="184.81,325.595 188.482,349.623 215.512,335.942 " id="polygon4205" style="fill:#650000"/><polygon points="215.512,335.942 214.177,354.965 231.882,339.614 " id="polygon4207"/><polygon points="269.359,338.813 269.392,307.742 258.954,318.033 " id="polygon4209" style="fill:#bd0000"/><polygon points="289.383,242.333 284.559,265.708 314.63,253.462 " id="polygon4211" style="fill:#bd0000"/><polygon points="280.188,320.425 283.87,344.243 306.468,322.484 " id="polygon4213" style="fill:#bd0000"/><polygon points="280.105,404.12 286.8,386.01 258.999,395.468 " id="polygon4215" style="fill:#bd0000"/><polygon points="306.322,346.388 307.729,369.722 333.342,357.836 " id="polygon4217" style="fill:#bd0000"/><polygon points="363.295,334.731 363.229,317.289 351.227,328.153 " id="polygon4219" style="fill:#bd0000"/></g><g id="g4221"><polygon points="160.449,345.951 162.02,362.775 188.498,349.623 " id="polygon4223" style="fill:#ffcf00"/><polygon points="207.505,286.882 207.505,268.196 182.807,281.46 " id="polygon4225" style="fill:#ffcf00"/><polygon points="214.177,354.965 224.523,370.646 240.225,351.29 " id="polygon4227" style="fill:#bd0000"/><polygon points="259.018,395.468 261.196,370.725 248.565,386.678 " id="polygon4229" style="fill:#ffcf00"/><polygon points="312.072,301.221 306.453,322.484 336.287,308.335 " id="polygon4231" style="fill:#ffcf00"/><polygon points="327.606,375.923 333.342,357.836 307.729,369.722 " id="polygon4233" style="fill:#ffcf00"/><polygon points="351.227,328.153 356.315,350.475 363.295,334.731 " id="polygon4235" style="fill:#ffcf00"/></g><g id="g4237"><polygon points="202.175,192.975 202.175,207.076 224.417,188.531 " id="polygon4239" style="fill:#464749"/><polygon points="250.789,138.8 245.595,158.835 269.731,144.363 " id="polygon4241" style="fill:#464749"/><polygon points="215.535,175.165 224.404,188.531 243.476,172.162 " id="polygon4243" style="fill:#464749"/><polygon points="172.796,266.527 163.786,238.829 149.559,262.568 " id="polygon4245" style="fill:#464749"/><polygon points="182.823,281.46 196.841,253.846 172.796,266.527 " id="polygon4247" style="fill:#464749"/><polygon points="207.505,268.196 207.505,286.882 219.533,284.213 " id="polygon4249" style="fill:#464749"/><polygon points="245.965,186.296 240.398,222.292 261.937,201.883 " id="polygon4251" style="fill:#464749"/><polygon points="222.587,209.673 214.794,239.732 240.398,222.292 " id="polygon4253" style="fill:#464749"/><polygon points="214.794,239.732 224.404,258.227 238.915,247.896 " id="polygon4255" style="fill:#464749"/><polygon points="238.915,247.896 234.091,276.098 258.597,258.286 " id="polygon4257" style="fill:#464749"/><polygon points="231.866,339.614 240.211,351.29 248.22,338.275 " id="polygon4259" style="fill:#464749"/><polygon points="310.549,233.053 294.59,216.353 286.8,223.381 " id="polygon4261" style="fill:#464749"/><polygon points="289.383,242.333 286.8,223.379 262.293,227.487 " id="polygon4263" style="fill:#464749"/><polygon points="286.8,293.078 284.559,265.708 258.202,281.46 " id="polygon4265" style="fill:#464749"/><polygon points="286.8,386.01 280.477,363.674 261.18,370.725 " id="polygon4267" style="fill:#464749"/><polygon points="314.615,253.462 309.421,271.649 337.253,264.966 " id="polygon4269" style="fill:#464749"/><polygon points="309.421,271.649 312.072,301.221 336.287,288.201 " id="polygon4271" style="fill:#464749"/><polygon points="336.287,288.201 336.287,308.335 357.679,299.849 " id="polygon4273" style="fill:#464749"/><polygon points="333.342,357.836 327.606,375.923 343.947,363.674 " id="polygon4275" style="fill:#464749"/><polygon points="265.198,125.416 269.714,144.363 277.136,128.78 " id="polygon4277" style="fill:#464749"/></g><g id="g4279"><polygon points="243.476,172.162 245.965,186.296 263.05,181.474 " id="polygon4281"/><polygon points="277.136,128.78 286.041,107.627 265.198,125.416 " id="polygon4283"/><polygon points="196.828,253.846 182.807,281.46 207.505,268.196 " id="polygon4285"/><polygon points="286.8,223.381 275.651,196.685 261.923,201.883 " id="polygon4287"/><polygon points="284.559,265.708 289.383,242.333 258.583,258.286 " id="polygon4289"/><polygon points="280.188,320.425 286.8,293.078 269.375,307.742 " id="polygon4291"/><polygon points="269.344,338.813 270.086,353.282 283.87,344.243 " id="polygon4293"/><polygon points="286.8,386.01 280.105,404.12 301.644,392.62 " id="polygon4295"/><polygon points="337.253,264.966 336.287,288.201 349.198,281.46 " id="polygon4297"/><polygon points="224.404,188.531 222.587,209.673 245.965,186.296 " id="polygon4299"/></g><g id="g4301"><polygon points="224.404,188.531 245.965,186.296 243.476,172.162 " id="polygon4303" style="fill:#ffff00"/></g></g></svg>