<?xml version="1.0" encoding="UTF-8" standalone="no"?>
<svg
   version="1.1"
   id="Livello_1"
   x="0px"
   y="0px"
   viewBox="0 0 76 76"
   style="enable-background:new 0 0 76 76;"
   xml:space="preserve"
   sodipodi:docname="UniCa_nero.svg"
   inkscape:version="1.1.1 (3bf5ae0d25, 2021-09-20)"
   xmlns:inkscape="http://www.inkscape.org/namespaces/inkscape"
   xmlns:sodipodi="http://sodipodi.sourceforge.net/DTD/sodipodi-0.dtd"
   xmlns="http://www.w3.org/2000/svg"
   xmlns:svg="http://www.w3.org/2000/svg"
   xmlns:rdf="http://www.w3.org/1999/02/22-rdf-syntax-ns#"
   xmlns:cc="http://creativecommons.org/ns#"
   xmlns:dc="http://purl.org/dc/elements/1.1/"><defs
   id="defs243" /><sodipodi:namedview
   id="namedview241"
   pagecolor="#ffffff"
   bordercolor="#666666"
   borderopacity="1.0"
   inkscape:pageshadow="2"
   inkscape:pageopacity="0.0"
   inkscape:pagecheckerboard="true"
   showgrid="false"
   inkscape:zoom="10.960526"
   inkscape:cx="8.8043217"
   inkscape:cy="37.863145"
   inkscape:window-width="1920"
   inkscape:window-height="1011"
   inkscape:window-x="0"
   inkscape:window-y="32"
   inkscape:window-maximized="1"
   inkscape:current-layer="Livello_1" />
<style
   type="text/css"
   id="style2">
	.st0{fill:#FFFFFF;}
</style>
<title
   id="title4">Logo UniCa</title>
<polygon
   class="st0"
   points="23.1,30.1 28.6,30.1 28.6,31.5 23.1,31.5 23.1,37 21.7,37 21.7,31.5 16.1,31.5 16.1,30.1 21.7,30.1   21.7,24.5 23.1,24.5 "
   id="polygon6"
   style="fill:#000000" />
<path
   class="st0"
   d="M18.5,34c-0.4-0.2-0.8-0.4-0.9-0.4c-0.1,0.3-0.3,1.7,0,1.8c0.2,0.1,0.6,0.2,0.9,0.2c0,0,0,0,0,0l0.1,0.7  c0.4-0.1,1.4-0.6,1.2-1.1C19.6,34.6,19,34.2,18.5,34"
   id="path8"
   style="fill:#000000" />
<path
   class="st0"
   d="M18.8,33.5c-0.5-0.3-0.9-0.5-0.9-0.5c0,0,0,0,0-0.1c0.1-0.2,0.3-0.3,0.5-0.4c0.3-0.1,0.8-0.2,1.5,0.2  c0.5,0.3,0.7,0.8,0.6,1.2c0,0.4-0.2,0.8-0.2,0.8c0,0-0.1,0-0.1,0C19.9,34.2,19.3,33.8,18.8,33.5"
   id="path10"
   style="fill:#000000" />
<path
   class="st0"
   d="M25.6,34c-0.4-0.2-0.8-0.4-0.9-0.4c-0.1,0.3-0.3,1.7,0,1.8c0.2,0.1,0.6,0.2,0.9,0.2c0,0,0,0,0,0l0.1,0.7  c0.4-0.1,1.4-0.6,1.2-1.1C26.7,34.6,26.1,34.2,25.6,34"
   id="path12"
   style="fill:#000000" />
<path
   class="st0"
   d="M25.1,33c0.8,0.3,1.8,1,2.3,1.7c0.1-0.3,0.4-1.3-0.4-1.8C26.3,32.6,25.5,32.4,25.1,33"
   id="path14"
   style="fill:#000000" />
<path
   class="st0"
   d="M18.5,26.7c-0.4-0.2-0.8-0.4-0.9-0.4c-0.1,0.3-0.3,1.7,0,1.8c0.2,0.1,0.6,0.2,0.9,0.2c0,0,0,0,0,0l0.1,0.7  c0.4-0.1,1.4-0.6,1.2-1.1C19.6,27.4,19,27,18.5,26.7"
   id="path16"
   style="fill:#000000" />
<path
   class="st0"
   d="M18,25.7c0.8,0.3,1.8,1,2.3,1.7c0.1-0.3,0.4-1.3-0.4-1.8C19.2,25.4,18.5,25.2,18,25.7"
   id="path18"
   style="fill:#000000" />
<path
   class="st0"
   d="M25.6,26.7c-0.4-0.2-0.8-0.4-0.9-0.4c-0.1,0.3-0.3,1.7,0,1.8c0.2,0.1,0.6,0.2,0.9,0.2c0,0,0,0,0,0l0.1,0.7  c0.4-0.1,1.4-0.6,1.2-1.1C26.7,27.4,26.1,27,25.6,26.7"
   id="path20"
   style="fill:#000000" />
<path
   class="st0"
   d="M25.1,25.7c0.8,0.3,1.8,1,2.3,1.7c0.1-0.3,0.4-1.3-0.4-1.8C26.3,25.4,25.5,25.2,25.1,25.7"
   id="path22"
   style="fill:#000000" />
<path
   class="st0"
   d="M12.8,30.8C12.8,30.8,12.8,30.9,12.8,30.8l-1.2,1.2c0,0,0,0-0.1,0l-1.2-1.2c0,0,0,0,0-0.1l1.2-1.2  c0,0,0,0,0.1,0L12.8,30.8z"
   id="path24"
   style="fill:#000000" />
<path
   class="st0"
   d="M34.4,30.8C34.4,30.8,34.4,30.9,34.4,30.8l-1.2,1.2c0,0,0,0-0.1,0L32,30.9c0,0,0,0,0-0.1l1.2-1.2c0,0,0,0,0.1,0  L34.4,30.8z"
   id="path26"
   style="fill:#000000" />
<path
   class="st0"
   d="M23.6,41.6C23.6,41.6,23.6,41.7,23.6,41.6l-1.2,1.2c0,0,0,0-0.1,0l-1.2-1.2c0,0,0,0,0-0.1l1.2-1.2  c0,0,0,0,0.1,0L23.6,41.6z"
   id="path28"
   style="fill:#000000" />
<path
   class="st0"
   d="M31.2,37.8C31.2,37.8,31.2,37.8,31.2,37.8l0,1.7c0,0,0,0,0,0h-1.7c0,0,0,0,0,0v-1.7c0,0,0,0,0,0H31.2z"
   id="path30"
   style="fill:#000000" />
<path
   class="st0"
   d="M15.4,37.8C15.4,37.8,15.4,37.8,15.4,37.8l0,1.7c0,0,0,0,0,0h-1.7c0,0,0,0,0,0v-1.7c0,0,0,0,0,0H15.4z"
   id="path32"
   style="fill:#000000" />
<path
   class="st0"
   d="M21.1,38c0.2-0.3,0.5-0.4,0.8-0.3c0.3,0.2,0.4,0.5,0.3,0.8c-0.2,0.3-0.5,0.4-0.8,0.3C21,38.6,20.9,38.3,21.1,38  "
   id="path34"
   style="fill:#000000" />
<path
   class="st0"
   d="M22,39.1c0.1,0,0.2,0,0.2,0.1c-0.6,1.1-1.5,2-3,2c-1.7,0-2.4-0.9-3-1.9c0-0.1,0.1-0.2,0.2-0.2  c0.7,0.7,1.9,1,2.8,1C20.2,40.1,21.3,39.8,22,39.1"
   id="path36"
   style="fill:#000000" />
<path
   class="st0"
   d="M22.7,38c0.2-0.3,0.5-0.4,0.8-0.3c0.3,0.2,0.4,0.5,0.3,0.8c-0.2,0.3-0.5,0.4-0.8,0.3  C22.7,38.6,22.6,38.3,22.7,38"
   id="path38"
   style="fill:#000000" />
<path
   class="st0"
   d="M28.5,39.1c0.1,0,0.2,0,0.2,0.1c-0.6,1.1-1.5,2-3,2c-1.7,0-2.4-0.9-3-1.9c0-0.1,0.1-0.2,0.2-0.2  c0.7,0.7,1.9,1,2.8,1C26.7,40.1,27.9,39.8,28.5,39.1"
   id="path40"
   style="fill:#000000" />
<path
   class="st0"
   d="M15.2,29.5c0.3,0.2,0.4,0.5,0.3,0.8c-0.2,0.3-0.5,0.4-0.8,0.3c-0.3-0.2-0.4-0.5-0.3-0.8  C14.5,29.4,14.9,29.3,15.2,29.5"
   id="path42"
   style="fill:#000000" />
<path
   class="st0"
   d="M15.2,24.6c0.3,0.2,0.4,0.5,0.3,0.8c-0.2,0.3-0.5,0.4-0.8,0.3c-0.3-0.2-0.4-0.5-0.3-0.8  C14.5,24.6,14.9,24.5,15.2,24.6"
   id="path44"
   style="fill:#000000" />
<path
   class="st0"
   d="M14.1,30.3c0,0.1,0,0.2-0.1,0.2c-1.1-0.6-2-1.5-2-3c0-1.7,0.9-2.4,1.9-3c0.1,0,0.2,0.1,0.2,0.2  c-0.7,0.7-1,1.9-1,2.8C13.1,28.5,13.4,29.7,14.1,30.3"
   id="path46"
   style="fill:#000000" />
<path
   class="st0"
   d="M15.2,36c0.3,0.2,0.4,0.5,0.3,0.8c-0.2,0.3-0.5,0.4-0.8,0.3c-0.3-0.2-0.4-0.5-0.3-0.8  C14.5,36,14.9,35.8,15.2,36"
   id="path48"
   style="fill:#000000" />
<path
   class="st0"
   d="M15.2,31.1c0.3,0.2,0.4,0.5,0.3,0.8c-0.2,0.3-0.5,0.4-0.8,0.3c-0.3-0.2-0.4-0.5-0.3-0.8  C14.5,31.1,14.9,31,15.2,31.1"
   id="path50"
   style="fill:#000000" />
<path
   class="st0"
   d="M14.1,36.9c0,0.1,0,0.2-0.1,0.2c-1.1-0.6-2-1.5-2-3c0-1.7,0.9-2.4,1.9-3c0.1,0,0.2,0.1,0.2,0.2  c-0.7,0.7-1,1.8-1,2.8C13.1,35,13.4,36.2,14.1,36.9"
   id="path52"
   style="fill:#000000" />
<path
   class="st0"
   d="M29.6,29.5c0.3-0.2,0.7,0,0.8,0.3c0.2,0.3,0,0.7-0.3,0.8c-0.3,0.2-0.7,0-0.8-0.3C29.1,30,29.2,29.6,29.6,29.5"
   id="path54"
   style="fill:#000000" />
<path
   class="st0"
   d="M29.6,24.6c0.3-0.2,0.7,0,0.8,0.3c0.2,0.3,0,0.7-0.3,0.8c-0.3,0.2-0.7,0-0.8-0.3C29.1,25.2,29.2,24.8,29.6,24.6  "
   id="path56"
   style="fill:#000000" />
<path
   class="st0"
   d="M30.7,30.3c0.7-0.7,1-1.8,1-2.8c0-1-0.3-2.2-1-2.8c0-0.1,0-0.2,0.1-0.2c1.1,0.6,2,1.3,2,3c0,1.5-0.9,2.4-1.9,3  C30.7,30.5,30.7,30.4,30.7,30.3L30.7,30.3z"
   id="path58"
   style="fill:#000000" />
<path
   class="st0"
   d="M29.6,36c0.3-0.2,0.7,0,0.8,0.3c0.2,0.3,0,0.7-0.3,0.8c-0.3,0.2-0.7,0-0.8-0.3C29.1,36.5,29.2,36.2,29.6,36"
   id="path60"
   style="fill:#000000" />
<path
   class="st0"
   d="M29.6,31.1c0.3-0.2,0.7,0,0.8,0.3c0.2,0.3,0,0.7-0.3,0.8c-0.3,0.2-0.7,0-0.8-0.3C29.1,31.7,29.2,31.3,29.6,31.1  "
   id="path62"
   style="fill:#000000" />
<path
   class="st0"
   d="M30.7,36.9c0.7-0.7,1-1.8,1-2.8c0-1-0.3-2.2-1-2.8c0-0.1,0-0.2,0.1-0.2c1.1,0.6,2,1.3,2,3c0,1.5-0.9,2.4-1.9,3  C30.7,37.1,30.7,37,30.7,36.9L30.7,36.9z"
   id="path64"
   style="fill:#000000" />
<path
   class="st0"
   d="M28.3,20.7c0.3,0.1,0.4,0.4,0.2,0.7c-0.1,0.3-0.4,0.4-0.7,0.2c-0.3-0.1-0.4-0.4-0.2-0.7  C27.7,20.7,28.1,20.6,28.3,20.7"
   id="path66"
   style="fill:#000000" />
<path
   class="st0"
   d="M29.5,21.3c0.3,0.1,0.4,0.4,0.2,0.7c-0.1,0.3-0.4,0.4-0.7,0.2c-0.3-0.1-0.4-0.4-0.2-0.7  C28.9,21.3,29.2,21.2,29.5,21.3"
   id="path68"
   style="fill:#000000" />
<path
   class="st0"
   d="M29.4,20.1c0.3,0.1,0.4,0.4,0.2,0.7c-0.1,0.3-0.4,0.4-0.7,0.2c-0.3-0.1-0.4-0.4-0.2-0.7  C28.8,20.1,29.1,20,29.4,20.1"
   id="path70"
   style="fill:#000000" />
<path
   class="st0"
   d="M24.9,19.8c0.3,0.1,0.5,0.3,0.4,0.6c-0.1,0.3-0.3,0.5-0.6,0.4c-0.3-0.1-0.5-0.3-0.4-0.6  C24.4,20,24.6,19.8,24.9,19.8"
   id="path72"
   style="fill:#000000" />
<path
   class="st0"
   d="M26.2,20.1c0.3,0.1,0.5,0.3,0.4,0.6c-0.1,0.3-0.3,0.5-0.6,0.4c-0.3,0-0.5-0.3-0.4-0.6  C25.7,20.2,25.9,20,26.2,20.1"
   id="path74"
   style="fill:#000000" />
<path
   class="st0"
   d="M25.8,19c0.3,0.1,0.5,0.3,0.4,0.6c-0.1,0.3-0.3,0.5-0.6,0.4c-0.3-0.1-0.5-0.3-0.4-0.6  C25.2,19.1,25.5,18.9,25.8,19"
   id="path76"
   style="fill:#000000" />
<path
   class="st0"
   d="M21.8,19.6c0.3,0,0.5,0.2,0.5,0.5c0,0.3-0.2,0.5-0.5,0.5c-0.3,0-0.5-0.2-0.5-0.5C21.3,19.8,21.6,19.6,21.8,19.6  "
   id="path78"
   style="fill:#000000" />
<path
   class="st0"
   d="M23.2,19.6c0.3,0,0.5,0.2,0.5,0.5c0,0.3-0.2,0.5-0.5,0.5c-0.3,0-0.5-0.2-0.5-0.5C22.6,19.8,22.9,19.6,23.2,19.6  "
   id="path80"
   style="fill:#000000" />
<path
   class="st0"
   d="M22.5,18.6c0.3,0,0.5,0.2,0.5,0.5c0,0.3-0.2,0.5-0.5,0.5c-0.3,0-0.5-0.2-0.5-0.5C22,18.8,22.2,18.6,22.5,18.6"
   id="path82"
   style="fill:#000000" />
<path
   class="st0"
   d="M16.5,20.7c0.3-0.1,0.6,0,0.7,0.2c0.1,0.3,0,0.6-0.2,0.7c-0.3,0.1-0.6,0-0.7-0.2C16.2,21.1,16.3,20.8,16.5,20.7  "
   id="path84"
   style="fill:#000000" />
<path
   class="st0"
   d="M15.4,21.3c0.3-0.1,0.6,0,0.7,0.2c0.1,0.3,0,0.6-0.2,0.7c-0.3,0.1-0.6,0-0.7-0.2C15,21.7,15.1,21.4,15.4,21.3"
   id="path86"
   style="fill:#000000" />
<path
   class="st0"
   d="M15.5,20.1c0.3-0.1,0.6,0,0.7,0.2c0.1,0.3,0,0.6-0.2,0.7c-0.3,0.1-0.6,0-0.7-0.2C15.1,20.6,15.2,20.3,15.5,20.1  "
   id="path88"
   style="fill:#000000" />
<path
   class="st0"
   d="M20.1,19.8c0.3-0.1,0.6,0.1,0.6,0.4c0.1,0.3-0.1,0.6-0.4,0.6c-0.3,0.1-0.6-0.1-0.6-0.4  C19.6,20.1,19.8,19.9,20.1,19.8"
   id="path90"
   style="fill:#000000" />
<path
   class="st0"
   d="M18.8,20.1c0.3-0.1,0.6,0.1,0.6,0.4c0.1,0.3-0.1,0.6-0.4,0.6c-0.3,0.1-0.6-0.1-0.6-0.4  C18.3,20.4,18.5,20.1,18.8,20.1"
   id="path92"
   style="fill:#000000" />
<path
   class="st0"
   d="M19.2,19c0.3-0.1,0.6,0.1,0.6,0.4c0.1,0.3-0.1,0.6-0.4,0.6c-0.3,0.1-0.6-0.1-0.6-0.4C18.7,19.3,18.9,19,19.2,19  "
   id="path94"
   style="fill:#000000" />
<path
   class="st0"
   d="M23.8,21.8c0.8,0.1,1.5-0.7,1.5-0.7c0,0,0.1,0,0.1,0c0,0,0.5,1,1.3,1.2c0.8,0.2,1.7-0.4,1.7-0.4  c0.1,0,0.1,0,0.1,0.1l-1,1.4c0,0,0,0-0.1,0c0,0-0.4-0.2-1.2-0.5c-0.8-0.2-2-0.5-3.7-0.5c-1.6,0-2.8,0.2-3.6,0.5  c-0.8,0.2-1.2,0.5-1.2,0.5c0,0,0,0-0.1,0l-1-1.4c0,0,0-0.1,0.1-0.1c0,0,0.9,0.6,1.7,0.4c0.8-0.2,1.3-1.2,1.3-1.2c0,0,0.1,0,0.1,0  c0,0,0.7,0.9,1.5,0.7c0.5-0.1,1-0.5,1.3-0.9c0,0,0.1,0,0.1,0C22.5,20.8,23,21.6,23.8,21.8"
   id="path96"
   style="fill:#000000" />
<path
   class="st0"
   d="M60.6,21.2c0.3-0.1,0.6,0,0.7,0.2c0.1,0.3,0,0.6-0.2,0.7c-0.3,0.1-0.6,0-0.7-0.2C60.2,21.6,60.3,21.3,60.6,21.2  "
   id="path98"
   style="fill:#000000" />
<path
   class="st0"
   d="M56.2,24.6C56.2,24.6,56.3,24.6,56.2,24.6l0.9,0.8l0,2.4l1.2-1.2c0,0,0,0,0.1,0l4.1,4.1  c-0.2,0.2-1.6,0.9-2.4,0.9c-0.1,0-0.6-0.1-0.7-0.1v-2.4h-0.6v0.5h-0.5v-0.5l-0.7,0l0,1.8c-0.2-0.1-0.7-0.2-1.3-0.2  c-0.6,0-1.4,0.4-1.7,0.5l0.7,0.8c0,0,0.4-0.3,1.5-0.3c0.4,0,1,0.3,1.5,0.4c1,0.3,1.5,0.5,2.6,0.1c0.3-0.1,0.5-0.2,0.5-0.2  c0.1,0,0.1,0,0.1,0.1l-3,3c0,0,0,0-0.1,0c0,0-0.5-0.5-1.1-1.1v2.4l-0.9,0.9c0,0-0.1,0-0.1,0l0-4.1l-0.6-0.6l-0.1-0.1V38l-0.9,0.9  c0,0-0.1,0-0.1,0v-7.5l-0.4-0.4c0,0,0,0,0-0.1l0.4-0.4l0-7.5c0-0.1,0-0.1,0.1,0l0.8,0.8l0,5.7l0.8-0.8L56.2,24.6z"
   id="path100"
   style="fill:#000000" />
<path
   class="st0"
   d="M52.8,38.1l0-6l-0.8,0.7l0,4.3c0,0.1,0,0.1-0.1,0l-0.8-0.8l0-2.6l-1.3,1.3c0,0,0,0-0.1,0l-3-2.9  c-0.1-0.1,0.4-0.4,1.5-0.4c0.4,0,1.1,0.3,1.5,0.4c1,0.3,1.5,0.5,2.6,0.1c0.3-0.1,0.5-0.2,0.5-0.2c0,0,0.9-0.9,0.9-0.9  c0,0,0.1,0,0.1,0v7.7c0,0.1,0,0.1-0.1,0L52.8,38.1z"
   id="path102"
   style="fill:#000000" />
<path
   class="st0"
   d="M35.1,46.2c-0.2-1.7-0.4-1.6,0.5-0.8c0,0,0,0,0,0.1l-0.4,0.8c0.3-0.1,0.8-0.2,1.4-0.3L36,45.3c0,0,0,0,0-0.1  l0.7-0.7c0,0,0,0,0.1,0l0.7,0.7c0,0,0,0,0,0.1l-0.5,0.5c0.5-0.1,1-0.1,1.5-0.1l-0.7-0.7c0,0,0,0,0-0.1l0.7-0.7c0,0,0,0,0.1,0  l0.7,0.7c0,0,0,0,0,0.1l-0.7,0.7c0.4,0,0.9,0,1.4,0.1l-0.5-0.5c0,0,0,0,0-0.1l0.7-0.7c0,0,0.1,0,0.1,0c-0.4-1.5-0.8-2.6-0.8-2.8  c-0.3-0.1-0.6-0.2-0.9-0.2c-0.5,0-1.2,0.2-1.6,0.4c0,0-0.1,0-0.1-0.1c0.9-1.9,1.7-3.1,1.7-3.1c0,0,0.1,0,0.1,0c0,0,0.5,0.8,1.1,1.9  c0.6,1.2,1.4,2.7,2,4.4l0.4-0.4c0,0,0.1,0,0.1,0L42,46.1c0.4,1.2,0.6,2.4,0.7,3.5l0.4-0.2c0,0,0.1,0,0.1,0.1l-0.5,1.8  c0,1.3-0.1,2.5-0.3,3.6l0.3-0.1c0,0,0.1,0,0.1,0.1l-0.6,1.6c-0.2,1.3-0.4,2.1-0.4,2.1c0,0-0.5,0.2-1.2,0.3c-0.7,0.1-1.5,0.3-2.1,0.3  c-0.6,0-1.5-0.1-2.1-0.3c-0.7-0.1-1.2-0.3-1.2-0.3c0-0.1-0.2-0.5,0-0.5c0,0,2-0.4,3.3-0.4c0.4,0,1.1,0,1.2,0c0-0.1,0.1-0.5,0.2-0.7  c-0.5-0.1-1-0.1-1.4-0.1c-1.3,0-3.3,0.4-3.3,0.4l-0.3-1c0-0.1,0.6-0.2,1.3-0.4l0.4-0.1l-0.8-0.8c0,0,0,0,0-0.1l0.8-0.8  c0,0,0,0,0.1,0l0.8,0.8c0,0,0,0,0,0.1l-0.7,0.7c0.5-0.1,1.1-0.2,1.6-0.2l-0.8-0.8c0,0,0,0,0-0.1l0.8-0.8c0,0,0,0,0.1,0l0.8,0.8  c0,0,0,0,0,0.1l-0.8,0.8h0.1c0.4,0,0.9,0.1,1.3,0.1l-0.6-0.6c0,0,0,0,0-0.1l0.8-0.8c0,0,0,0,0.1,0l0.5,0.5c0.2-0.8,0.3-1.7,0.4-2.6  c-0.8-0.1-1.8-0.2-2.5-0.2c-1.5,0-3.9,0.5-3.9,0.5l-0.1-1.2l-0.5-1.7c0,0,0-0.1,0.1-0.1l1.5,0.8c0,0,0,0,0,0.1l-0.8,0.8  c0.3-0.1,0.9-0.2,1.7-0.3L35.3,50c0,0,0,0,0-0.1l0.9-0.9c0,0,0,0,0.1,0l0.9,0.9c0,0,0,0,0,0.1l-0.9,0.9c0.7-0.1,1.4-0.1,1.9-0.2  l-0.9-0.9c0,0,0,0,0-0.1l0.9-0.9c0,0,0,0,0.1,0l0.9,0.9c0,0,0,0,0,0.1l-0.9,0.9c0.6,0,1.2,0.1,1.8,0.1L39.5,50c0,0,0,0,0-0.1  l0.9-0.9c0,0,0,0,0.1,0l0.5,0.5c0-0.9-0.2-1.8-0.3-2.7c-0.7-0.1-1.6-0.2-2.2-0.2c-1.4,0-3.5,0.5-3.5,0.5  C34.7,47,34.9,46.8,35.1,46.2C35,46.2,35,46.2,35.1,46.2"
   id="path104"
   style="fill:#000000" />
<path
   class="st0"
   d="M34.8,56.2C34.8,56.2,34.8,56.2,34.8,56.2l-0.6-1.5c0,0,0-0.1,0.1-0.1l1.3,0.7c0,0,0,0,0,0.1L34.8,56.2z"
   id="path106"
   style="fill:#000000" />
<path
   class="st0"
   d="M11.8,44.1c-0.2-0.2,0.6-0.7,0.6-0.8c0,0,0.1,0,0.1,0l0.8,0.7l0.5,0.5l0.1,0.1l1.2-1.2c0.2-0.2,0.7,0.6,0.8,0.6  c0,0,0,0.1,0,0.1l-1.2,1.3l1.2,1.1l2-2.1c0.2-0.2,0.7,0.6,0.8,0.6c0,0,0,0.1,0,0.1l-2,2.1l5.2,4.9c0.1,0.4,0.1,0.8,0.2,1.1  c0,0.1,0,0.3,0,0.3c0,0.1-0.1,0.2-0.2,0.1l-6-5.6l-2.2,2.3c-0.2,0.2-0.7-0.6-0.8-0.6c0,0,0-0.1,0-0.1l2.2-2.3L14,46.2l-1.4,1.5  c-0.2,0.2-0.7-0.6-0.8-0.6c0,0,0-0.1,0-0.1l1.4-1.5L11.8,44.1z"
   id="path108"
   style="fill:#000000" />
<path
   class="st0"
   d="M37.4,66.6c0.1,0.1,0,0.1-0.1,0.2c-0.1,0-0.2,0-0.3,0c-0.3,0-0.7-0.1-1.1-0.1l-7.3-6.8c-0.1-0.1,0-0.1,0-0.1  c0,0,0.1,0,0.2,0c0.2,0,0.5,0,1-0.1L37.4,66.6z"
   id="path110"
   style="fill:#000000" />
<path
   class="st0"
   d="M31,57.5c0.4,0,0.7,0.1,0.7,0.1c0.1,0-0.1,0.2-0.1,0.2c-0.6,0.5-1.5,0.9-2.3,1c-1.3,0.2-2.2,0.1-2.8,0.1  c-0.6-0.1-0.8-0.2-0.8-0.2c0,0,0-0.1,0-0.1c0,0,0.3-0.2,1-0.4C27.9,57.7,29.5,57.4,31,57.5"
   id="path112"
   style="fill:#000000" />
<path
   class="st0"
   d="M47.2,59.7c0.1,0,0.2,0,0.2,0c0.1,0,0.1,0.1,0,0.1l-7.2,6.7c-0.5,0.1-0.9,0.1-1.2,0.1c-0.1,0-0.3,0-0.3,0  c-0.1,0-0.1-0.1-0.1-0.2l7.5-7l0.1,0C46.7,59.6,47,59.6,47.2,59.7"
   id="path114"
   style="fill:#000000" />
<path
   class="st0"
   d="M54.4,53.2l0.2-1.5l2.8-2.8c0.1-0.2,0.1-0.7,0.1-1c-0.3-6,6.6-5.5,6.5-1.5c-0.1,3.7-5.1,3.4-4.2,0.3  c0.2-0.8,1.3-0.9,1.5-0.4c0.4,0.8-0.1,1.3-0.7,1.3c0.1,0.1,0.3,0.4,0.7,0.5c0.5,0.1,1.4-0.4,1.5-1.2c0.2-2-2.2-2.5-3.3-1.5  c-0.7,0.8-1,1.5-0.8,2.7c0.1,0.7,0.6,1.5,1.1,1.9c0.1,0.1,0.2,0.1,0.2,0.1c0,0,0,0.1,0,0.1c0,0-0.9-0.3-1.5-0.5L54.4,53.2  C54.4,53.3,54.4,53.2,54.4,53.2"
   id="path116"
   style="fill:#000000" />
<path
   class="st0"
   d="M45.7,57.5c0.4,0,1,0,1.6,0c2.4,0.3,3.7,1.1,3.7,1.1c0,0,0,0.1,0,0.1c0,0-1,0.4-3.6,0.1  c-1.6-0.2-2.4-1.1-2.4-1.1c0,0,0-0.1,0-0.1C45,57.6,45.3,57.5,45.7,57.5"
   id="path118"
   style="fill:#000000" />
<path
   class="st0"
   d="M49.8,26.7l1.3,1.3l0-2.5l0.9-0.9c0,0,0.1,0,0.1,0l0,4.4l0.8,0.7v-5.9l0.9-0.9c0,0,0.1,0,0.1,0l0,7.7  c0.2,0.2,0.3,0.3,0.3,0.3c0,0-0.4,0.2-0.9,0.4c-0.5,0.2-1.1,0.4-1.5,0.4c-0.1,0-0.6-0.1-0.7-0.1l0-2.3l-0.6,0v0.5h-0.5v-0.5H49  l0,1.8c-0.2,0-0.7-0.2-1.2-0.2c-0.8,0-1.7,0.5-1.7,0.5l-0.5-0.4c0,0,0,0,0-0.1L49.8,26.7C49.8,26.7,49.8,26.7,49.8,26.7"
   id="path120"
   style="fill:#000000" />
<path
   class="st0"
   d="M45.2,30C45.2,30,45.2,30,45.2,30l-1.2,1.2c0,0,0,0-0.1,0l-1.2-1.2c0,0,0,0,0-0.1l1.2-1.2c0,0,0,0,0.1,0  L45.2,30z"
   id="path122"
   style="fill:#000000" />
<path
   class="st0"
   d="M65.1,30C65.1,30,65.1,30,65.1,30l-1.2,1.2c0,0,0,0-0.1,0L62.7,30c0,0,0,0,0-0.1l1.2-1.2c0,0,0,0,0.1,0L65.1,30  z"
   id="path124"
   style="fill:#000000" />
<path
   class="st0"
   d="M55.3,41.9C55.3,42,55.3,42,55.3,41.9l-1.2,1.2c0,0,0,0-0.1,0L52.9,42c0,0,0,0,0-0.1l1.2-1.2c0,0,0,0,0.1,0  L55.3,41.9z"
   id="path126"
   style="fill:#000000" />
<path
   class="st0"
   d="M61.9,37.2C62,37.2,62,37.2,61.9,37.2l0,1.7c0,0,0,0,0,0h-1.7c0,0,0,0,0,0v-1.7c0,0,0,0,0,0H61.9z"
   id="path128"
   style="fill:#000000" />
<path
   class="st0"
   d="M47.8,37.2C47.8,37.2,47.9,37.2,47.8,37.2l0,1.7c0,0,0,0,0,0h-1.7c0,0,0,0,0,0v-1.7c0,0,0,0,0,0H47.8z"
   id="path130"
   style="fill:#000000" />
<path
   class="st0"
   d="M46.4,28.6c0.1,0.3-0.1,0.7-0.4,0.8c-0.3,0.1-0.7-0.1-0.8-0.4c-0.1-0.3,0.1-0.7,0.4-0.8  C46,28.1,46.3,28.3,46.4,28.6"
   id="path132"
   style="fill:#000000" />
<path
   class="st0"
   d="M49.9,25.2c0.1,0.3-0.1,0.7-0.4,0.8c-0.3,0.1-0.7-0.1-0.8-0.4c-0.1-0.3,0.1-0.7,0.4-0.8S49.8,24.9,49.9,25.2"
   id="path134"
   style="fill:#000000" />
<path
   class="st0"
   d="M45,28.5c0,0.1-0.2,0.1-0.2,0c-0.4-1.2-0.3-2.5,0.7-3.5c1.2-1.2,2.3-1.1,3.5-0.8c0.1,0.1,0.1,0.3,0,0.3  C47.1,24.5,44.9,26.7,45,28.5"
   id="path136"
   style="fill:#000000" />
<path
   class="st0"
   d="M61.6,28.7c0.1-0.3,0.5-0.5,0.8-0.4c0.3,0.1,0.5,0.5,0.4,0.8c-0.1,0.3-0.5,0.5-0.8,0.4  C61.7,29.4,61.5,29,61.6,28.7"
   id="path138"
   style="fill:#000000" />
<path
   class="st0"
   d="M58.2,25.3c0.1-0.3,0.5-0.5,0.8-0.4c0.3,0.1,0.5,0.5,0.4,0.8c-0.1,0.3-0.5,0.5-0.8,0.4  C58.2,26,58.1,25.6,58.2,25.3"
   id="path140"
   style="fill:#000000" />
<path
   class="st0"
   d="M63.1,28.6c0.1-1.8-2.2-4.1-4-4c-0.1,0-0.1-0.2,0-0.3c1.2-0.4,2.3-0.5,3.5,0.7c1.1,1.1,1.1,2.3,0.8,3.5  C63.3,28.7,63.1,28.7,63.1,28.6"
   id="path142"
   style="fill:#000000" />
<path
   class="st0"
   d="M50.3,36.8c-0.1,0.3-0.5,0.5-0.8,0.4c-0.3-0.1-0.5-0.5-0.4-0.8c0.1-0.3,0.5-0.5,0.8-0.4  C50.2,36.1,50.4,36.4,50.3,36.8"
   id="path144"
   style="fill:#000000" />
<path
   class="st0"
   d="M53.7,40.2c-0.1,0.3-0.5,0.5-0.8,0.4c-0.3-0.1-0.5-0.5-0.4-0.8c0.1-0.3,0.5-0.5,0.8-0.4  C53.6,39.5,53.8,39.9,53.7,40.2"
   id="path146"
   style="fill:#000000" />
<path
   class="st0"
   d="M48.9,36.8c-0.1,1.8,2.2,4.1,4,4c0.1,0,0.1,0.2,0,0.3c-1.2,0.4-2.3,0.5-3.5-0.7c-1.1-1.1-1.1-2.3-0.8-3.5  C48.8,36.7,48.9,36.7,48.9,36.8"
   id="path148"
   style="fill:#000000" />
<path
   class="st0"
   d="M45.6,32.1c-0.1,0.3-0.5,0.5-0.8,0.4c-0.3-0.1-0.5-0.5-0.4-0.8c0.1-0.3,0.5-0.5,0.8-0.4  C45.6,31.5,45.8,31.8,45.6,32.1"
   id="path150"
   style="fill:#000000" />
<path
   class="st0"
   d="M49.1,35.6c-0.1,0.3-0.5,0.5-0.8,0.4c-0.3-0.1-0.5-0.5-0.4-0.8c0.1-0.3,0.5-0.5,0.8-0.4  C49,34.9,49.2,35.3,49.1,35.6"
   id="path152"
   style="fill:#000000" />
<path
   class="st0"
   d="M44.3,32.2c-0.1,1.8,2.2,4.1,4,4c0.1,0,0.1,0.2,0,0.3c-1.2,0.4-2.3,0.5-3.5-0.7c-1.1-1.1-1.1-2.3-0.8-3.5  C44.2,32.1,44.3,32.1,44.3,32.2"
   id="path154"
   style="fill:#000000" />
<path
   class="st0"
   d="M57.9,36.8c-0.1-0.3,0.1-0.7,0.4-0.8c0.3-0.1,0.7,0.1,0.8,0.4c0.1,0.3-0.1,0.7-0.4,0.8  C58.3,37.3,58,37.1,57.9,36.8"
   id="path156"
   style="fill:#000000" />
<path
   class="st0"
   d="M54.4,40.2c-0.1-0.3,0.1-0.7,0.4-0.8c0.3-0.1,0.7,0.1,0.8,0.4c0.1,0.3-0.1,0.7-0.4,0.8  C54.9,40.7,54.5,40.5,54.4,40.2"
   id="path158"
   style="fill:#000000" />
<path
   class="st0"
   d="M59.2,36.8c0-0.1,0.2-0.1,0.3,0c0.4,1.2,0.3,2.5-0.7,3.5c-1.2,1.2-2.3,1.1-3.5,0.8c-0.1-0.1-0.1-0.3,0-0.3  C57,40.9,59.3,38.6,59.2,36.8"
   id="path160"
   style="fill:#000000" />
<path
   class="st0"
   d="M62.5,32.1c-0.1-0.3,0.1-0.7,0.4-0.8c0.3-0.1,0.7,0.1,0.8,0.4c0.1,0.3-0.1,0.7-0.4,0.8  C62.9,32.7,62.6,32.5,62.5,32.1"
   id="path162"
   style="fill:#000000" />
<path
   class="st0"
   d="M59,35.6c-0.1-0.3,0.1-0.7,0.4-0.8c0.3-0.1,0.7,0.1,0.8,0.4c0.1,0.3-0.1,0.7-0.4,0.8  C59.5,36.1,59.1,35.9,59,35.6"
   id="path164"
   style="fill:#000000" />
<path
   class="st0"
   d="M63.8,32.2c0-0.1,0.2-0.1,0.2,0c0.4,1.2,0.3,2.5-0.7,3.5c-1.2,1.2-2.3,1.1-3.5,0.8c-0.1-0.1-0.1-0.3,0-0.3  C61.6,36.3,63.9,34,63.8,32.2"
   id="path166"
   style="fill:#000000" />
<path
   class="st0"
   d="M59.9,20.6c0.3,0.1,0.4,0.4,0.2,0.7c-0.1,0.3-0.4,0.4-0.7,0.2c-0.3-0.1-0.4-0.4-0.2-0.7  C59.3,20.5,59.6,20.4,59.9,20.6"
   id="path168"
   style="fill:#000000" />
<path
   class="st0"
   d="M60.9,20c0.3,0.1,0.4,0.4,0.2,0.7c-0.1,0.3-0.4,0.4-0.7,0.2c-0.3-0.1-0.4-0.4-0.2-0.7  C60.3,20,60.7,19.9,60.9,20"
   id="path170"
   style="fill:#000000" />
<path
   class="st0"
   d="M48.2,20.6c0.3-0.1,0.6,0,0.7,0.2c0.1,0.3,0,0.6-0.2,0.7c-0.3,0.1-0.6,0-0.7-0.2C47.8,21,47.9,20.7,48.2,20.6"
   id="path172"
   style="fill:#000000" />
<path
   class="st0"
   d="M47,21.2c0.3-0.1,0.6,0,0.7,0.2c0.1,0.3,0,0.6-0.2,0.7c-0.3,0.1-0.6,0-0.7-0.2C46.7,21.6,46.8,21.3,47,21.2"
   id="path174"
   style="fill:#000000" />
<path
   class="st0"
   d="M47.1,20c0.3-0.1,0.6,0,0.7,0.2c0.1,0.3,0,0.6-0.2,0.7c-0.3,0.1-0.6,0-0.7-0.2C46.8,20.4,46.9,20.1,47.1,20"
   id="path176"
   style="fill:#000000" />
<path
   class="st0"
   d="M50.8,19.4c0.3-0.1,0.6,0.1,0.6,0.4c0.1,0.3-0.1,0.6-0.4,0.6c-0.3,0.1-0.6-0.1-0.6-0.4  C50.4,19.7,50.5,19.4,50.8,19.4"
   id="path178"
   style="fill:#000000" />
<path
   class="st0"
   d="M57.1,19.4c0.3,0.1,0.5,0.3,0.4,0.6c-0.1,0.3-0.3,0.5-0.6,0.4c-0.3-0.1-0.5-0.3-0.4-0.6  C56.5,19.5,56.8,19.3,57.1,19.4"
   id="path180"
   style="fill:#000000" />
<path
   class="st0"
   d="M53.3,19.4c0.3,0,0.5,0.2,0.5,0.5c0,0.3-0.2,0.5-0.5,0.5c-0.3,0-0.5-0.2-0.5-0.5C52.8,19.7,53.1,19.4,53.3,19.4  "
   id="path182"
   style="fill:#000000" />
<path
   class="st0"
   d="M54.7,19.4c0.3,0,0.5,0.2,0.5,0.5c0,0.3-0.2,0.5-0.5,0.5c-0.3,0-0.5-0.2-0.5-0.5C54.1,19.7,54.4,19.4,54.7,19.4  "
   id="path184"
   style="fill:#000000" />
<path
   class="st0"
   d="M54,18.5c0.3,0,0.5,0.2,0.5,0.5c0,0.3-0.2,0.5-0.5,0.5c-0.3,0-0.5-0.2-0.5-0.5C53.5,18.7,53.7,18.5,54,18.5"
   id="path186"
   style="fill:#000000" />
<path
   class="st0"
   d="M55.3,21.6c0.8,0.1,1.5-0.7,1.5-0.7c0,0,0.1,0,0.1,0c0,0,0.5,1,1.3,1.2c0.8,0.2,1.7-0.4,1.7-0.4  c0.1,0,0.1,0,0.1,0.1l-1,1.4c0,0,0,0-0.1,0c0,0-0.4-0.2-1.2-0.5c-0.8-0.2-2-0.5-3.7-0.5c-1.6,0-2.8,0.2-3.6,0.5  c-0.8,0.2-1.2,0.5-1.2,0.5c0,0,0,0-0.1,0l-1-1.4c0,0,0-0.1,0.1-0.1c0,0,0.9,0.6,1.7,0.4c0.8-0.2,1.3-1.2,1.3-1.2c0,0,0.1,0,0.1,0  c0,0,0.7,0.9,1.5,0.7c0.8-0.1,1.3-0.9,1.3-0.9H54C54,20.7,54.5,21.5,55.3,21.6"
   id="path188"
   style="fill:#000000" />
<path
   class="st0"
   d="M38.1,36.2l4.1-1c0,0,0.1,0,0.1,0c0,0-0.2,2.2-3.6,2.7c-1.8,0.3-2.9-1.1-3.4-2.6c-0.1-0.3-0.1-0.6-0.1-0.6  c0,0,0-0.1,0.1,0L38.1,36.2z"
   id="path190"
   style="fill:#000000" />
<path
   class="st0"
   d="M41.3,13.3c0.2,0,0.4,0.2,0.4,0.4c0,0.2-0.2,0.4-0.4,0.4c-0.2,0-0.4-0.2-0.4-0.4C40.9,13.4,41.1,13.3,41.3,13.3  "
   id="path192"
   style="fill:#000000" />
<path
   class="st0"
   d="M41.9,11.8c0.2,0,0.4,0.2,0.4,0.4c0,0.2-0.2,0.4-0.4,0.4c-0.2,0-0.4-0.2-0.4-0.4C41.4,12,41.6,11.8,41.9,11.8"
   id="path194"
   style="fill:#000000" />
<path
   class="st0"
   d="M41.3,10.3c0.2,0,0.4,0.2,0.4,0.4c0,0.2-0.2,0.4-0.4,0.4c-0.2,0-0.4-0.2-0.4-0.4C40.9,10.5,41.1,10.3,41.3,10.3  "
   id="path196"
   style="fill:#000000" />
<path
   class="st0"
   d="M39.7,9.6c0.2,0,0.4,0.2,0.4,0.4c0,0.2-0.2,0.4-0.4,0.4c-0.2,0-0.4-0.2-0.4-0.4C39.2,9.8,39.4,9.6,39.7,9.6"
   id="path198"
   style="fill:#000000" />
<path
   class="st0"
   d="M38,9.4c0.2,0,0.4,0.2,0.4,0.4c0,0.2-0.2,0.4-0.4,0.4c-0.2,0-0.4-0.2-0.4-0.4C37.6,9.6,37.8,9.4,38,9.4"
   id="path200"
   style="fill:#000000" />
<path
   class="st0"
   d="M36.2,9.9c0.2,0,0.4,0.2,0.4,0.4c0,0.2-0.2,0.4-0.4,0.4c-0.2,0-0.4-0.2-0.4-0.4C35.8,10.1,36,9.9,36.2,9.9"
   id="path202"
   style="fill:#000000" />
<path
   class="st0"
   d="M35,11c0.2,0,0.4,0.2,0.4,0.4c0,0.2-0.2,0.4-0.4,0.4c-0.2,0-0.4-0.2-0.4-0.4C34.6,11.2,34.8,11,35,11"
   id="path204"
   style="fill:#000000" />
<path
   class="st0"
   d="M34.7,12.4c0.2,0,0.4,0.2,0.4,0.4c0,0.2-0.2,0.4-0.4,0.4c-0.2,0-0.4-0.2-0.4-0.4C34.3,12.6,34.5,12.4,34.7,12.4  "
   id="path206"
   style="fill:#000000" />
<path
   class="st0"
   d="M35.3,13.9c0.2,0,0.4,0.2,0.4,0.4c0,0.2-0.2,0.4-0.4,0.4c-0.2,0-0.4-0.2-0.4-0.4C34.9,14.1,35.1,13.9,35.3,13.9  "
   id="path208"
   style="fill:#000000" />
<path
   class="st0"
   d="M38.1,12.4c0.4,0,0.9,0,1.2,0.4l1.1-1.3l-0.8-0.2l-0.2,0.5l-0.8,0c-0.1,0,0.1-0.4,0.1-0.6l-0.5-0.4l-0.5,0.5  c0.3,0.7,0.4,0.6-0.3,0.7c0,0,0,0,0,0L37,11.3l-0.8,0.4l1.1,0.8C37.5,12.5,37.7,12.4,38.1,12.4"
   id="path210"
   style="fill:#000000" />
<path
   class="st0"
   d="M16.2,38c0.2-0.3,0.5-0.4,0.8-0.3c0.3,0.2,0.4,0.5,0.3,0.8c-0.2,0.3-0.5,0.4-0.8,0.3  C16.2,38.6,16.1,38.3,16.2,38"
   id="path212"
   style="fill:#000000" />
<path
   class="st0"
   d="M27.6,38c0.2-0.3,0.5-0.4,0.8-0.3c0.3,0.2,0.4,0.5,0.3,0.8c-0.2,0.3-0.5,0.4-0.8,0.3  C27.6,38.6,27.4,38.3,27.6,38"
   id="path214"
   style="fill:#000000" />
<path
   class="st0"
   d="M39.4,0.3C18.5-0.4,1,15.9,0.3,36.7c-0.7,20.8,15.6,38.3,36.4,39.1c20.8,0.7,38.3-15.6,39.1-36.4  C76.5,18.5,60.2,1,39.4,0.3 M41.4,74.9c0.3-0.3,1-1.3,1-3.1c-0.1-1.9-0.8-2.7-1-2.9c1.4-0.2,2.5-0.4,3.8-0.7  c-0.2,0.3-0.8,1.4-0.3,3.1c0.5,1.8,1.7,2.5,2.1,2.7C45,74.4,43.2,74.6,41.4,74.9 M65.6,20.5C65.7,20.5,65.7,20.5,65.6,20.5  c-0.2,0.1-0.3,0.2-0.5,0.2c-0.5,0.3-0.7,0.8-0.7,1.3c0,0.1-0.1,0.1-0.1,0l-0.4-1.1c0,0,0-0.1,0-0.2c0-0.1,0.1-0.3,0.1-0.6  c0.2-0.5,0.5-1.1,1.2-1.6c0,0,0.1,0,0.1,0.1C64.9,19.2,65.1,20,65.6,20.5 M66.6,21.6c0.2,0.4,0.1,0.8-0.3,1c-0.4,0.2-0.8,0.1-1-0.3  c-0.2-0.4-0.1-0.8,0.3-1C65.9,21.2,66.4,21.3,66.6,21.6 M66.2,18.7c0.4-0.2,0.8-0.1,1,0.3c0.2,0.4,0.1,0.8-0.3,1  c-0.4,0.2-0.8,0.1-1-0.3C65.8,19.4,65.9,18.9,66.2,18.7 M67.3,20.6c0.2-0.1,0.3-0.2,0.4-0.4c0,0,0.1,0,0.1,0  c0.1,0.4,0.2,0.7,0.5,0.9c0,0,0,0.1,0,0.1c-0.3,0.1-0.7,0.2-0.9,0.5c0,0-0.1,0-0.1,0c-0.1-0.3-0.2-0.6-0.5-0.8c0,0,0-0.1,0-0.1  C67.1,20.8,67.2,20.7,67.3,20.6 M69.2,22.4c0.2,0.4,0.1,0.8-0.3,1c-0.4,0.2-0.8,0.1-1-0.3c-0.2-0.4-0.1-0.8,0.3-1  C68.5,21.9,69,22,69.2,22.4 M68.7,24.3c-0.8,0.3-1.8,0.4-2.6,0.1c-0.1-0.1-0.2-0.1-0.2-0.1l-0.7-0.9c0,0,0-0.1,0.1-0.1  c0.4,0.2,1,0.3,1.5,0c0.1-0.1,0.3-0.2,0.4-0.3c0,0,0.1,0,0.1,0c0,0.2,0.1,0.3,0.2,0.4C67.6,24,68.1,24.3,68.7,24.3  C68.7,24.2,68.8,24.3,68.7,24.3 M68.2,39.1C67.6,55.8,53.6,68.8,37,68.2C20.4,67.6,7.3,53.7,7.9,37C8.5,20.4,22.5,7.3,39.1,7.9  C55.8,8.5,68.8,22.5,68.2,39.1 M10.8,18.5C10.7,18.4,10.8,18.4,10.8,18.5c0.8,0.5,1.3,1.3,1.5,2.2c0,0.1,0,0.2,0,0.2l-0.4,1.1  c0,0.1-0.1,0-0.1,0c0-0.5-0.3-1-0.7-1.3c-0.1-0.1-0.3-0.1-0.4-0.2c0,0-0.1,0,0-0.1c0.1-0.1,0.2-0.2,0.3-0.4  C11.1,19.5,11.1,18.9,10.8,18.5 M7.2,23.3c-0.4-0.2-0.5-0.7-0.3-1c0.2-0.4,0.7-0.5,1-0.3c0.4,0.2,0.5,0.7,0.3,1  C8,23.4,7.6,23.5,7.2,23.3 M7.5,24.2c0.8,0,1.4-0.5,1.5-1.2c0,0,0-0.1,0.1,0c0.1,0.1,0.2,0.2,0.4,0.3c0.5,0.3,1,0.3,1.5,0  c0.1,0,0.1,0,0.1,0.1l-0.7,0.9c0,0-0.1,0.1-0.2,0.1c-0.1,0.1-0.3,0.1-0.6,0.2C9,24.6,8.3,24.6,7.5,24.2C7.4,24.2,7.4,24.2,7.5,24.2   M7.8,21.1c0.3-0.2,0.5-0.5,0.5-0.9c0,0,0.1-0.1,0.1,0c0.2,0.3,0.5,0.5,0.9,0.5c0,0,0.1,0,0,0.1c-0.2,0.2-0.4,0.5-0.5,0.8  c0,0,0,0.1-0.1,0c-0.1-0.1-0.2-0.2-0.3-0.3C8.2,21.3,8,21.2,7.8,21.1C7.7,21.2,7.7,21.2,7.8,21.1 M8.9,18.9c0.2-0.4,0.7-0.5,1-0.3  c0.4,0.2,0.5,0.7,0.3,1c-0.2,0.4-0.7,0.5-1,0.3C8.8,19.7,8.7,19.3,8.9,18.9 M10.6,21.3c0.4,0.2,0.5,0.7,0.3,1  c-0.2,0.4-0.7,0.5-1,0.3c-0.4-0.2-0.5-0.7-0.3-1C9.8,21.2,10.2,21.1,10.6,21.3 M39.1,75.1c0.2-0.3,0.4-0.6,0.4-1  c0-0.2,0-0.3-0.1-0.5c0,0,0-0.1,0.1-0.1c0.2,0.1,0.3,0.1,0.5,0.1c0.6,0,1.1-0.3,1.3-0.8c0-0.1,0.1,0,0.1,0c-0.2,0.8-0.6,1.6-1.3,2.1  c-0.1,0.1-0.2,0.1-0.2,0.1l0,0L39.1,75.1C39.1,75.2,39.1,75.1,39.1,75.1 M40,72.9c-0.4,0-0.7-0.3-0.7-0.7c0-0.4,0.3-0.7,0.7-0.7  c0.4,0,0.7,0.3,0.7,0.7C40.7,72.5,40.4,72.9,40,72.9 M38.8,68.9C38.7,68.9,38.8,68.8,38.8,68.9L40,69c0,0,0.1,0,0.2,0.1  c0.1,0.1,0.3,0.2,0.4,0.4c0.3,0.4,0.7,1,0.8,1.9c0,0.1-0.1,0.1-0.1,0c-0.2-0.5-0.8-0.8-1.3-0.8c-0.2,0-0.3,0-0.5,0.1  c0,0-0.1,0-0.1-0.1c0-0.1,0.1-0.3,0.1-0.5C39.5,69.7,39.2,69.2,38.8,68.9 M37.3,74.1c0-0.4,0.3-0.7,0.7-0.7c0.4,0,0.7,0.3,0.7,0.7  c0,0.4-0.3,0.7-0.7,0.7C37.6,74.9,37.3,74.5,37.3,74.1 M38.5,72.1c0,0.2,0,0.4,0.1,0.6c0,0,0,0.1-0.1,0.1c-0.2-0.1-0.3-0.1-0.5-0.1  c-0.2,0-0.4,0-0.5,0.1c0,0-0.1,0-0.1-0.1c0.1-0.2,0.1-0.3,0.1-0.5c0-0.2,0-0.3-0.1-0.5c0,0,0-0.1,0.1-0.1c0.2,0.1,0.3,0.1,0.5,0.1  c0.2,0,0.3,0,0.5-0.1c0,0,0.1,0,0.1,0.1C38.5,71.8,38.5,72,38.5,72.1 M37.3,70.2c0-0.4,0.3-0.7,0.7-0.7c0.4,0,0.7,0.3,0.7,0.7  c0,0.4-0.3,0.7-0.7,0.7C37.6,71,37.3,70.6,37.3,70.2 M36.5,70.2c0,0.2,0,0.3,0.1,0.4c0,0,0,0.1-0.1,0.1c-0.1,0-0.3-0.1-0.5-0.1  c-0.6,0-1.1,0.3-1.3,0.8c0,0.1-0.1,0-0.1,0c0.1-0.9,0.5-1.8,1.2-2.3c0.1-0.1,0.2-0.1,0.2-0.1l1.1-0.2c0.1,0,0.1,0.1,0,0.1  C36.8,69.2,36.5,69.7,36.5,70.2 M36.1,71.4c0.4,0,0.7,0.3,0.7,0.7c0,0.4-0.3,0.7-0.7,0.7c-0.4,0-0.7-0.3-0.7-0.7  C35.3,71.7,35.7,71.4,36.1,71.4 M34.7,72.9C34.7,72.8,34.7,72.8,34.7,72.9c0.3,0.4,0.8,0.7,1.4,0.7c0.2,0,0.3,0,0.5-0.1  c0,0,0.1,0,0.1,0.1c-0.1,0.2-0.1,0.4-0.1,0.5c0,0.4,0.1,0.7,0.4,1c0,0,0,0.1,0,0.1l-0.7-0.1c0,0-0.1,0-0.2-0.1  C35.3,74.5,34.8,73.7,34.7,72.9 M29.3,74c1-0.5,1.8-1.6,2.1-2.7c0.4-1.8-0.1-2.8-0.3-3.1c1.3,0.4,2.4,0.6,3.8,0.7l-0.1,0.1  c-0.7,0.7-0.9,1.9-0.9,2.8c0,1,0.2,2.2,0.9,3l0.1,0.1C32.9,74.6,31.1,74.4,29.3,74 M2.4,28.7c0.9-0.6,2.1-0.6,3.2-0.4  c1.9,0.6,2.4,1.7,2.5,1.9c-0.6,2.1-0.9,4.4-1,6.7c-0.5,14.7,9.2,27.3,22.8,31c0.1,0.1,0.8,1.1,0.3,3c-0.3,1.1-0.8,1.7-1.3,2.2  c-0.2,0.2-0.5,0.4-0.8,0.6C12,69.2,0.5,54.2,1.1,36.8c0.1-2.7,0.4-5.3,1.1-7.9C2.2,28.9,2.3,28.8,2.4,28.7 M4.5,22.4  c0.1,0.4,0.6,1.5,2.2,2.4c1.7,0.9,2.7,0.7,3.1,0.6c-0.5,1.3-0.9,2.3-1.3,3.7c-0.2-0.4-0.8-1.3-2.5-1.8c-1.8-0.5-3,0.2-3.4,0.4  C3.1,25.8,3.8,24.1,4.5,22.4 M6.1,21.3c0.2,0.1,0.3,0.1,0.5,0.2c0,0,0.1,0,0,0.1c-0.6,0.5-0.7,1.3-0.3,1.9c0,0.1,0,0.1-0.1,0.1  c-0.6-0.5-1.1-1.3-1.2-2.2c0-0.1,0-0.2,0-0.2l0,0l0.3-0.7c0,0,0.1,0,0.1,0C5.5,20.8,5.8,21.1,6.1,21.3 M7.2,19.4  c0.4,0.2,0.5,0.7,0.3,1c-0.2,0.4-0.7,0.5-1,0.3c-0.4-0.2-0.5-0.7-0.3-1C6.4,19.3,6.8,19.2,7.2,19.4 M7.1,17.8  c0.8-0.4,1.7-0.3,2.5-0.1c0.1,0,0,0.1,0,0.1c-0.5,0-1,0.3-1.3,0.7c-0.1,0.2-0.2,0.3-0.2,0.5c0,0.1,0,0.1-0.1,0  c-0.1-0.1-0.3-0.3-0.4-0.4c-0.3-0.2-0.7-0.2-1-0.2c-0.1,0-0.1,0,0-0.1l0.4-0.6C6.9,17.9,7,17.8,7.1,17.8 M11.4,12.5  c0,1.1,0.5,2.2,1.3,3c1.3,1.3,2.5,1.3,2.9,1.3c-1,1-1.7,1.8-2.5,2.9l0-0.1c-0.3-0.9-1.2-1.7-2-2.2c-0.9-0.5-2-0.9-3.1-0.7l-0.1,0  c1.1-1.5,2.3-3,3.6-4.3C11.4,12.4,11.4,12.5,11.4,12.5 M64,12c-0.1,1-0.7,2-1.4,2.7c-1.5,1.4-2.7,1.3-2.9,1.2  c-12-11.7-31.3-11.8-43.3,0c-0.2,0-1.4,0.2-2.9-1.2c-0.8-0.8-1.1-1.6-1.2-2.1c-0.1-0.3-0.1-0.6-0.1-0.9C26.6-2.5,49.7-2.4,64,11.8  C64,11.8,64,11.9,64,12 M68.4,16.8c-0.4-0.1-1.6-0.3-3.2,0.7c-1.6,1-1.9,2-2,2.4c-0.9-1.1-1.5-2-2.5-2.9c0.4,0,1.6,0,2.9-1.3  c1.3-1.3,1.3-2.7,1.3-3.2C66.1,13.8,67.3,15.3,68.4,16.8 M69.6,18.6c-0.3-0.1-0.7,0-1,0.2c-0.2,0.1-0.3,0.2-0.4,0.4c0,0-0.1,0-0.1,0  c-0.1-0.7-0.8-1.3-1.5-1.2c-0.1,0-0.1-0.1,0-0.1c0.8-0.3,1.7-0.3,2.5,0c0.1,0.1,0.2,0.1,0.2,0.1l0,0L69.6,18.6  C69.7,18.6,69.7,18.6,69.6,18.6 M69.7,20.7c-0.4,0.2-0.8,0.1-1-0.3c-0.2-0.4-0.1-0.8,0.3-1c0.4-0.2,0.8-0.1,1,0.3  C70.2,20,70,20.5,69.7,20.7 M71.1,21.4c-0.1,0.8-0.6,1.6-1.2,2.2c0,0-0.1,0-0.1-0.1c0.3-0.4,0.3-1,0-1.5c-0.1-0.2-0.2-0.3-0.3-0.4  c0,0,0-0.1,0-0.1c0.2,0,0.4-0.1,0.5-0.2c0.3-0.2,0.6-0.5,0.7-0.8c0-0.1,0.1-0.1,0.1,0l0.3,0.7C71.1,21.2,71.1,21.3,71.1,21.4   M73.6,27.7c0,0-0.1-0.1-0.1-0.1c-1-0.6-2.2-0.6-3.3-0.4c-1.7,0.5-2.4,1.5-2.5,1.8c-0.3-1.4-0.7-2.4-1.3-3.7l0.1,0  c1,0.2,2.1-0.2,2.9-0.6c0.9-0.5,1.8-1.3,2.1-2.3l0-0.1C72.4,24.2,73.1,25.9,73.6,27.7 M48.1,73.6c0,0-0.1,0-0.2-0.1  C46.9,73,46.3,72,46,71c-0.5-2,0.2-2.9,0.3-3.1C59,64.4,68.5,53,69,39.1c0.1-3.1-0.2-6-1-8.8c0.1-0.2,0.6-1.3,2.5-1.9  c1.1-0.3,1.9-0.1,2.5,0.1c0.3,0.1,0.6,0.3,0.9,0.5C78.8,47.9,67.8,68.1,48.1,73.6 M72.1,25.7L71.8,25c0,0,0,0-0.1,0l-4,1.4  c0,0,0,0,0,0.1l0.3,0.7c0,0,0,0,0.1,0L72.1,25.7C72.1,25.8,72.1,25.8,72.1,25.7 M66.2,15.5C66.3,15.5,66.3,15.5,66.2,15.5l-0.5-0.7  c0,0,0,0-0.1,0l-3.2,2.7c0,0,0,0,0,0.1l0.5,0.6c0,0,0,0,0.1,0L66.2,15.5z M13.8,17.5l-3.2-2.7c0,0,0,0-0.1,0L10,15.4c0,0,0,0,0,0.1  l3.2,2.7c0,0,0,0,0.1,0L13.8,17.5C13.8,17.5,13.8,17.5,13.8,17.5 M8.5,26.3l-4-1.4c0,0,0,0-0.1,0l-0.3,0.8c0,0,0,0.1,0,0.1l4,1.4  c0,0,0,0,0.1,0L8.5,26.3C8.5,26.4,8.5,26.3,8.5,26.3 M32.5,69.4l-0.7,4.2l0.8,0.1l0.1,0l0.7-4.1L32.5,69.4z M43.6,69.3l-0.8,0.2  l0.8,4.2l0.9-0.2L43.6,69.3z"
   id="path216"
   style="fill:#000000" />
<path
   class="st0"
   d="M27,59.9c-0.5,0.5-1.2,0.5-1.8,0.3c-0.4-0.1-1.4-1-1.8-1.3l0.4,2c-0.1,0.4-1.3,0.4-1.4,0.4  c-1.4,0.1-1.7-0.3-1.7-0.5c0,0,0-0.1,0-0.1l-0.1-0.3c-0.1-0.8-0.3-2,0.2-2.8c0.6-1,1.5-0.9,2.1-0.5c0.6,0.3,1.2,0.9,1.8,1.6  c0.4,0.5,1.4,0.8,2.1,1l0.2,0.1C27,59.8,27,59.9,27,59.9 M22.5,58.5c0-0.1-0.3-0.8-0.8-0.5c-0.5,0.2-0.4,1.9-0.3,2.4  c0.1,0.3,1,0.2,1.3,0.2L22.5,58.5z"
   id="path218"
   style="fill:#000000" />
<path
   class="st0"
   d="M31.9,51c-0.2-1.3-1.3-3.3-2.4-4.9c-1.1-1.6-2.2-2.9-2.2-2.9c0,0-0.1,0-0.1,0l-0.4,2l-1.4-2c0,0-0.1,0-0.1,0  c-2.5,5.1-2.4,9.2-2.2,10.4c0.1,0.6,0.6,1.7,1.1,2.6c0.5,0.9,0.9,1.6,1,1.6c0,0,0.7-0.2,1.6-0.5c0.8-0.3,1.8-0.5,2.1-0.6  c0.8-0.1,2.8-0.1,2.8-0.2C31.7,56.7,32.2,53.6,31.9,51 M26.5,46.6l-0.7,3c0,0-0.8,2.7-1.3,2.5c-1.2-0.4,0.1-3.9,0.1-3.9l0.9-3  L26.5,46.6z M27.7,47l1.3,8.8c0,0,0,0,0,0.1L28,56l-0.6,0.1l-0.1,0l-0.1,0l-0.1,0c-0.6,0.2-1.2,0.4-1.9,0.5c0,0,0,0-0.1,0  c-0.7-1-1-2-1.2-3.2c0,0,0-0.1,0-0.1c0.1,0,0.6,0,1.1-0.4c0.6-0.3,1.2-1.9,1.4-2.5L27.7,47C27.6,46.9,27.7,46.9,27.7,47 M31.1,55.8  C31.1,55.9,31,55.9,31.1,55.8l-0.8,0l0,0c-0.6-6.6-1.1-8.4-1.3-8.8c0-0.1,0-0.1,0.1,0c0.1,0.1,0.1,0.2,0.2,0.3  c0.2,0.3,0.4,0.7,0.7,1.2c0.5,0.9,1,2,1.1,2.5C31.3,51.9,31.1,55.4,31.1,55.8"
   id="path220"
   style="fill:#000000" />
<path
   class="st0"
   d="M49.7,59.9C49.7,59.9,49.6,59.8,49.7,59.9l0.3-0.2c0.6-0.2,1.7-0.5,2.1-1c0.6-0.7,1.2-1.3,1.8-1.6  c0.7-0.4,1.5-0.5,2.1,0.5c0.4,0.7,0.3,1.9,0.2,2.8l-0.1,0.3c0,0.1,0,0.1,0,0.1c0,0.8-3.1,0.5-3.1,0.1l0.4-2  c-0.4,0.3-1.4,1.2-1.8,1.3C50.8,60.4,50.2,60.4,49.7,59.9L49.7,59.9z M54.1,58.5l-0.2,2.1c0.2,0,1.2,0,1.3-0.2  c0.1-0.4,0.2-2.1-0.3-2.4C54.5,57.8,54.3,58.2,54.1,58.5"
   id="path222"
   style="fill:#000000" />
<path
   class="st0"
   d="M36.7,14.3c0.2-0.5,0.5-1,0.5-1c0.1-0.5,0.8-0.5,1.1-0.5c0.5,0,0.9,0.2,1.2,0.7c0,0.1,0.1,0.1,0.1,0.1  s0.1,0.4,0.3,0.9c0,0.1,0.2,0.7,0.3,0.9l0,0.1l0.1,0.2c0.2,0.5,0.5,1.5,0.9,1.8c1.9,1.4,2.2,5.4,2.2,5.6c0,0.2-0.7,6.2-1.2,8.5  c-0.1,0.6-0.4,1.9,0.2,2.5c0,0,0.1,0,0.1,0.1c0.1,0,0.1,0.1,0,0.1l-1.9,0.2c0,0-0.1,0,0-0.1c0,0,0.1-0.3,0.2-0.8  c0.1-0.5,0.3-1.1,0.3-1.7c0.1-0.8,0.3-2.1,0.4-3.5c0.1-1.4,0-3-0.5-4.3c0.3-0.9,0.4-1.4,0.5-1.6c-0.1,0-0.7-0.2-1.2-0.4  c-0.7-0.2-1.4-0.5-1.6-0.5c-0.4-0.1-1.4,1.1-1.7,1.5c-0.2,0.2-0.3,0.3-0.4,0.4c-0.2,0.1,0,0.6,0.1,0.7c0.1,0.2,0.3,0.7,0,0.9  c-0.6,0.5-0.4,1.2-0.2,1.8c0.1,0.3,0.2,0.6,0.3,0.9c0.4,1.3,0.9,3.2,0.5,5.9c0.1,0.2,1.6,0.3,1.6,0.2c0.5-2,0.6-3.1,0.6-3.8  c0.1-0.7,0.2-1,0.8-1.3c0,0,0.1,0,0.1,0c0,0.1,0,0.6-0.1,1.5c-0.1,0.9-0.2,2.2-0.4,3.9c0.6,0.2,0.4,0.4,0.1,0.7  c-0.4,0.2-1,0.5-1.4,0.7c0,0-0.1,0-0.1,0c-0.1-0.2-0.5-0.4-1.1-0.6c-0.5-0.2-1.1-0.4-1.6-0.5c-0.5-0.2-0.8-1.4-0.4-2.7  c0.2-0.9-0.5-5.6-0.6-6.8c-0.1-0.4-0.1-0.7-0.2-0.8c-0.1-0.2-0.2-0.3-0.3-0.5c-0.2-0.4-0.3-0.9-0.1-2.2c0.1-1.3,0.7-2.3,1.2-3.1  c0.3-0.4,0.5-0.8,0.7-1.1c0.2-0.3,0.3-0.6,0.4-0.8C36.2,15.6,36.5,14.9,36.7,14.3 M37.4,14.2c0,0.1,0,0.3-0.1,0.5  c0,0.1,0.3,0,0.5,0.1c0.2,0.1,0,0.6,0,0.8c0,0.2,0.3,0.1,0.2,0.1c0,0,0,0.7,0.1,0.9c0.2,0.1,0.8-0.3,0.9-0.5c0.4-0.7,0-1.7-0.2-1.9  c-0.1-0.2-1-0.1-1.3-0.1l-0.2,0L37.4,14.2z M41.3,20.1c-0.1,0-0.3,0-0.4,0c-0.5,0-1.9-0.1-2.3-0.3c-0.1,0-0.1-0.1-0.2-0.2  c0-0.5-0.2-1.1-0.7-1.7c0,0,0,0-0.1,0c-0.3,0.3-0.5,0.9-0.3,1.3c0.2,0.6,0,1.1-0.6,1.2c-0.1,0-0.2,0-0.2,0l-1.1,0.4  c0,0.2,0.2,1.6,0.4,1.7c0.1,0.1,2.4-1.6,2.4-1.8l0.1,0c0.2,0,0.3,0.1,0.5,0.1c0.7,0.2,1.4,0.5,2.1,0.7c0.1,0,0.3,0.1,0.4,0.1  c0.4-0.2,0.2-0.9,0.1-1.2L41.3,20.1C41.3,20.1,41.3,20.1,41.3,20.1 M38.4,14.8c0.4-0.1,0.5,0.1,0.6,0.2c0.1,0.1-0.1,0.2-0.3,0.2  c-0.2,0-0.3,0-0.3,0S38.3,14.8,38.4,14.8"
   id="path224"
   style="fill:#000000" />
<path
   class="st0"
   d="M51.4,43.3C51.4,43.3,51.4,43.3,51.4,43.3l-1.5,1.9l-0.4-2c0,0-0.1-0.1-0.1,0c0,0-1.1,1.3-2.2,2.9  c-1.1,1.6-2.2,3.6-2.4,4.9c-0.2,1.3-0.1,2.7,0,3.8c0.1,1.1,0.2,1.9,0.3,1.9c0,0,2,0,2.8,0.1c0.4,0.1,1.3,0.3,2.1,0.6  c0.8,0.3,1.6,0.5,1.6,0.5c0.6-1,1.8-3.1,2-4.2C53.8,52.5,53.9,48.4,51.4,43.3 M47.8,46.9c-0.2,0.4-0.7,2.2-1.3,8.8l-0.8,0.1  c0,0,0,0-0.1,0c0-0.2-0.1-1.1-0.1-2c0-1.1,0-2.3,0.1-2.8c0.2-0.5,0.6-1.6,1.1-2.5c0.2-0.5,0.5-0.9,0.7-1.2  C47.6,47.1,47.6,47,47.8,46.9C47.7,46.8,47.8,46.9,47.8,46.9 M50.2,50.5c0.2,0.7,0.8,2.2,1.4,2.5c0.3,0.2,0.8,0.3,1.1,0.4  c0,0,0,0,0,0.1c-0.2,1.2-0.5,2.2-1.2,3.2c0,0,0,0-0.1,0c-0.6-0.2-1.2-0.3-1.9-0.5l-0.1,0c0,0,0,0-0.1,0l-0.1,0L48.7,56l-1-0.2  c0,0,0,0,0-0.1l1.3-8.8c0-0.1,0.1-0.1,0.1,0L50.2,50.5z M52.3,52.1c-0.2,0.1-0.6-0.5-0.9-1.2c-0.3-0.7-0.5-1.4-0.5-1.4l-0.7-3l1-1.4  l0.9,3C52.4,48.8,53.3,51.8,52.3,52.1"
   id="path226"
   style="fill:#000000" />
<path
   class="st0"
   d="M26.4,67.9l-1-0.4l-2.9,3.3l0.8,0.3l2.3-2.6l0,0l-0.3,3.5l0.8,0.4L26.4,67.9z M22.8,66.3l-0.7-0.4l-1.7,2.7l0,0  l0.3-3.5l-0.9-0.5L17.7,68l0.7,0.4l1.7-2.7l0,0l-0.3,3.5l0.9,0.5L22.8,66.3z M18.5,63.3l-0.6-0.5L15.1,66l0.7,0.5L18.5,63.3z   M15.7,60.9L15,60.2l-4,1.9l0.6,0.6l3.1-1.5l0,0L13,64.2l0.6,0.6L15.7,60.9z M13,58l-1.4-2L11,56.3l1,1.3l-1,0.7l-0.9-1.2l-0.5,0.4  l0.9,1.2l-0.8,0.6L8.7,58l-0.5,0.4l1.4,2L13,58z M7.1,55.4l-0.1-0.2c-0.2-0.4-0.4-0.8,0.1-1c0.5-0.2,0.7,0.2,0.9,0.5l0.1,0.2  L7.1,55.4z M10.6,54.5l-0.4-0.7l-1.5,0.8l-0.1-0.2c-0.2-0.3-0.1-0.5,0.1-0.7l0.9-1.1l-0.4-0.8L8,53.1c-0.1,0.2-0.3,0.4-0.2,0.6l0,0  c-0.3-0.4-0.8-0.5-1.3-0.3c-1,0.5-0.5,1.5-0.1,2.3l0.4,0.8L10.6,54.5z M3.8,49.5c0,0.3,0.1,0.7,0.2,1c0.2,0.7,0.8,1.3,1.7,1  C7,51,6.1,49.4,6.8,49.1c0.4-0.1,0.7,0.2,0.8,0.5c0.1,0.3,0.1,0.7,0.1,1l0.7-0.2c0-0.4-0.1-0.6-0.2-1.1c-0.3-0.8-0.9-1.4-1.7-1.1  c-1.3,0.5-0.4,2.1-1.1,2.3c-0.4,0.2-0.7-0.2-0.8-0.4c-0.1-0.3-0.1-0.6-0.1-0.9L3.8,49.5z M7.2,46.3L7,45.5l-4.1,1l0.2,0.8L7.2,46.3z   M6.4,43l-0.1-0.8l-3.5,0.5l-0.2-1.2L2,41.5l0.4,3.2l0.7-0.1l-0.2-1.2L6.4,43z M4.5,37.6l0,1.2l-1.7-0.6v0L4.5,37.6z M6.1,40.4  l0-0.9l-1-0.4l0-1.7l1-0.4l0-0.9l-4.2,1.6l0,1L6.1,40.4z M2.5,31.7c-0.1,0.3-0.2,0.6-0.3,1c-0.1,0.7,0.1,1.5,1,1.6  c1.4,0.2,1.3-1.7,2.1-1.5c0.4,0.1,0.5,0.5,0.4,0.8c-0.1,0.3-0.2,0.6-0.4,0.9l0.7,0.2c0.2-0.4,0.3-0.6,0.3-1c0.1-0.8-0.1-1.6-1-1.7  c-1.4-0.2-1.4,1.7-2.1,1.5c-0.5-0.1-0.5-0.5-0.5-0.7c0-0.3,0.2-0.6,0.3-0.8L2.5,31.7z"
   id="path228"
   style="fill:#000000" />
<path
   class="st0"
   d="M70.7,35.7c-0.1-0.2-0.2-0.6-0.3-0.9c-0.1-0.9,0.5-1.5,1.3-1.6c0.9-0.1,1.6,0.4,1.7,1.2c0,0.3,0,0.6-0.1,0.9  l0.7,0c0.1-0.3,0.1-0.7,0.1-1c-0.2-1.4-1.1-2.2-2.5-2c-1.4,0.2-2,1.2-1.8,2.5c0,0.3,0.1,0.6,0.2,0.9L70.7,35.7z M71.6,39.8l0.1-1.2  l1.7,0.7l0,0L71.6,39.8z M70.1,37l0,0.9l0.9,0.4L70.9,40l-1,0.3l0,0.9l4.3-1.5l0-1L70.1,37z M73.1,44.2L73,44.5  c-0.1,0.4-0.2,0.9-0.7,0.8c-0.5-0.1-0.5-0.6-0.4-1L72,44L73.1,44.2z M69.8,42.7l-0.2,0.8l1.7,0.4l-0.1,0.3c-0.1,0.3-0.2,0.4-0.5,0.5  l-1.4,0.2l-0.2,0.9l1.7-0.3c0.2,0,0.4-0.1,0.5-0.3l0,0c0,0.5,0.3,0.9,0.8,1c1.1,0.2,1.3-0.8,1.5-1.7l0.2-0.9L69.8,42.7z M69.5,50  l0.4-1.2l1.4,1.2l0,0L69.5,50z M68.9,46.9l-0.3,0.8l0.8,0.7L68.8,50l-1,0l-0.3,0.9l4.5-0.1l0.3-0.9L68.9,46.9z M66.8,52.2l-1.2,2.2  l0.6,0.3l0.8-1.4L70,55l0.4-0.7L66.8,52.2z M64.8,55.5l-0.5,0.7l3.4,2.4l0.5-0.7L64.8,55.5z M62.8,58.3l-0.5,0.6l2.7,2.3l-0.8,0.9  l0.5,0.4l2.1-2.5l-0.5-0.4l-0.8,0.9L62.8,58.3z M60.2,63.3l0.9-0.8l0.7,1.7l0,0L60.2,63.3z M61.1,60.3l-0.7,0.6l0.4,1L59.6,63  l-0.9-0.5L58,63.1l4,2l0.7-0.6L61.1,60.3z M56.8,64.1l-0.7,0.4l1.7,2.7l0,0l-3-1.8l-0.9,0.5l2.2,3.6l0.7-0.4l-1.7-2.7l0,0l3,1.8  l0.9-0.5L56.8,64.1z M50.7,69.2l1.1-0.5l0.1,1.8l0,0L50.7,69.2z M52.6,66.6L51.8,67l0,1l-1.6,0.7l-0.7-0.7l-0.9,0.4l3.1,3.2l0.9-0.4  L52.6,66.6z"
   id="path230"
   style="fill:#000000" />
<path
   class="st0"
   d="M18.2,7.9c-0.3,0.1-0.6,0.2-0.9,0.4c-0.6,0.4-1,1.1-0.5,1.9c0.8,1.1,2.1-0.2,2.6,0.5c0.2,0.3,0,0.7-0.3,0.9  c-0.3,0.2-0.6,0.3-0.9,0.3l0.4,0.7c0.4-0.1,0.6-0.2,1-0.5c0.7-0.5,1.1-1.2,0.6-1.9c-0.8-1.2-2.1,0.1-2.5-0.5c-0.3-0.4,0-0.7,0.2-0.9  c0.2-0.2,0.5-0.3,0.8-0.3L18.2,7.9z M22.9,9.9l0.8-0.4L22,6.4l1.1-0.5l-0.3-0.6l-2.9,1.5l0.3,0.6l1.1-0.5L22.9,9.9z M27,8l1-0.3  l0-4.4l-0.8,0.3l0,3.5l0,0l-2.1-2.8l-0.9,0.3L27,8z M30.8,6.8l1.1-0.2c1.3-0.2,2.3-0.8,2.1-2.5c-0.3-1.6-1.5-1.9-2.7-1.7l-1.1,0.2  L30.8,6.8z M31.1,3.2l0.5-0.1C32.2,3,33,3.4,33.1,4.3C33.3,5.2,32.7,5.9,32,6L31.5,6L31.1,3.2z M36,6.1l0.8,0l-0.2-4.2l-0.8,0  L36,6.1z M38.7,3.9c-0.1,1.3,0.5,2.2,1.8,2.4c1.3,0.1,2.1-0.7,2.3-2C42.9,3,42.2,2,40.9,1.9C39.6,1.8,38.8,2.6,38.7,3.9 M39.5,4  c0.1-0.7,0.5-1.5,1.3-1.4c0.8,0.1,1.1,0.9,1,1.6c-0.1,0.8-0.5,1.5-1.3,1.4C39.7,5.5,39.5,4.7,39.5,4 M45.9,3.4l0.3,0.1  c0.4,0.1,0.9,0.3,0.7,0.7c-0.1,0.5-0.6,0.4-1,0.3l-0.3-0.1L45.9,3.4z M44.2,6.6L45,6.8l0.4-1.7l0.3,0.1c0.3,0.1,0.4,0.2,0.5,0.6  l0.2,1.4l0.9,0.2L47,5.6c0-0.2-0.1-0.5-0.3-0.5l0,0c0.5,0.1,1-0.3,1.1-0.7C48,3.2,47,3,46.1,2.8l-0.9-0.2L44.2,6.6z M49.6,8.2l1,0.4  l2.9-3.3L52.7,5l-2.2,2.6l0,0l0.3-3.5l-0.8-0.3L49.6,8.2z M53.2,9.8l0.7,0.4l1.8-2.9l0,0l-0.9,3.5l0.7,0.4L58.4,9l0,0l-1.9,2.9  l0.7,0.4l2.2-3.5l-1.1-0.7l-2.5,2.2l0,0L56.6,7l-1.1-0.7L53.2,9.8z"
   id="path232"
   style="fill:#000000" />
<polygon
   class="st0"
   points="16.3,55.6 18.8,55.6 18.8,55 17.1,55 17.1,51.4 16.3,51.4 "
   id="polygon234"
   style="fill:#000000" />
<polygon
   class="st0"
   points="58.5,55.6 61,55.6 61,55 59.4,55 59.4,53.8 60.9,53.8 60.9,53.1 59.4,53.1 59.4,52.1 61,52.1 61,51.4   58.5,51.4 "
   id="polygon236"
   style="fill:#000000" />
<polygon
   class="st0"
   points="36.1,64.5 37,64.5 37,62.6 38.6,62.6 38.6,64.5 39.5,64.5 39.5,60.3 38.6,60.3 38.6,62 37,62 37,60.3   36.1,60.3 "
   id="polygon238"
   style="fill:#000000" />
<metadata
   id="metadata652"><rdf:RDF><cc:Work
       rdf:about=""><dc:title>Logo UniCa</dc:title></cc:Work></rdf:RDF></metadata></svg>
